<svg xmlns="http://www.w3.org/2000/svg" viewBox="0 0 262.22 81.81"><defs><style>.cls-1{fill:#fff;}.cls-2{fill:#124386;}.cls-3{fill:#e32527;}</style></defs><title>资源 1</title><g id="图层_2" data-name="图层 2"><g id="图层_1-2" data-name="图层 1"><path class="cls-1" d="M97.15,75.58V64.24h1.76a9.84,9.84,0,0,1,2.24.16,3.38,3.38,0,0,1,1.6.95,3.35,3.35,0,0,1,.63,1.76,2.31,2.31,0,0,1-.31,1.12,1.87,1.87,0,0,1-1,1,2.76,2.76,0,0,1,1.43,1.28,3.45,3.45,0,0,1,0,3.51,2.77,2.77,0,0,1-1.27,1.12,4.93,4.93,0,0,1-2.08.48Zm2.24-9.27v2.4h.48a2.31,2.31,0,0,0,1.12-.32c.32-.16.32-.48.32-1a1.22,1.22,0,0,0-.32-.8,2.31,2.31,0,0,0-1.12-.32Zm0,4.32V73.5h.48a3.16,3.16,0,0,0,1.76-.32,1.12,1.12,0,0,0,.48-1,1.25,1.25,0,0,0-.48-1.12,3.23,3.23,0,0,0-1.76-.48Z"/><path class="cls-1" d="M106.42,64.24H113v1.11h-5.43v3.52h5.27V70h-5.27v4.47h5.27v1.12h-6.39Z"/><path class="cls-1" d="M114.57,64.24h1.12V75.58h-1.12Z"/><path class="cls-1" d="M122.08,64.24h1.12v7.67a6.19,6.19,0,0,1-.32,2.39,2.15,2.15,0,0,1-1,1.12,2.7,2.7,0,0,1-1.6.48,3,3,0,0,1-1.28-.32,3.83,3.83,0,0,1-1.43-1l.64-1,1.43,1a1.44,1.44,0,0,0,.8.16,2.27,2.27,0,0,0,1-.32.88.88,0,0,0,.48-.8,7.71,7.71,0,0,0,.16-1.91Z"/><path class="cls-1" d="M125.76,64.24h1.11V75.58h-1.11Z"/><path class="cls-1" d="M129.43,75.58V64.24h.32l7.51,8.62V64.24h1.12V75.58h-.32L130.71,67v8.63Z"/><path class="cls-1" d="M152,66.15l-1,.8a6.15,6.15,0,0,0-2.07-1.44,5.11,5.11,0,0,0-2.24-.47,4.69,4.69,0,0,0-2.56.63,5.09,5.09,0,0,0-1.92,1.76,4.17,4.17,0,0,0-.64,2.4A4.6,4.6,0,0,0,144.13,74a5.07,5.07,0,0,0,2.56.64,5.21,5.21,0,0,0,3-1,4.13,4.13,0,0,0,1.44-2.55h-3.67V70h4.79a5.49,5.49,0,0,1-5.75,5.75,5.92,5.92,0,0,1-5-2.08,6,6,0,0,1-.63-6.87,5.89,5.89,0,0,1,2.23-2.23,7.28,7.28,0,0,1,3.2-.8,7.47,7.47,0,0,1,2.72.48A11.27,11.27,0,0,1,152,66.15Z"/><path class="cls-1" d="M159.15,64.24h2.24v4.31h3.83V64.24h2.24V75.58h-2.24v-5h-3.83v5h-2.24Z"/><path class="cls-1" d="M174.49,64.24l5.28,11.34h-1.12l-1.76-3.67h-4.95l-1.76,3.67H168.9l5.27-11.34Zm-.16,2.39-1.92,4.16h3.84Z"/><path class="cls-1" d="M181.52,64.24h2.24a13.76,13.76,0,0,1,2.56.16,3.35,3.35,0,0,1,1.59.95,3.12,3.12,0,0,1,0,3.68,3.29,3.29,0,0,1-1.59,1,17.39,17.39,0,0,1-2.88.16h-.8v5.27h-1.12Zm1.12,1.11v3.84h1.92a6.56,6.56,0,0,0,1.76-.16,1.6,1.6,0,0,0,.8-.64,2.31,2.31,0,0,0,.31-1.12,1.71,1.71,0,0,0-.31-1,1.6,1.6,0,0,0-.8-.64,5.44,5.44,0,0,0-1.6-.16Z"/><path class="cls-1" d="M190.79,64.24H193a13.6,13.6,0,0,1,2.55.16,3.38,3.38,0,0,1,1.6.95,3.12,3.12,0,0,1,0,3.68,3.32,3.32,0,0,1-1.6,1,17.21,17.21,0,0,1-2.87.16h-.8v5.27h-1.12Zm1.12,1.11v3.84h1.92a6.45,6.45,0,0,0,1.75-.16,1.6,1.6,0,0,0,.8-.64,2.31,2.31,0,0,0,.32-1.12,1.72,1.72,0,0,0-.32-1,1.6,1.6,0,0,0-.8-.64,5.38,5.38,0,0,0-1.59-.16Z"/><path class="cls-1" d="M199.26,64.24h1.28l2.87,4.63,2.88-4.63h1.28l-3.52,5.91v5.43h-1.12V70.15Z"/><path class="cls-1" d="M217.16,64.24h2.23l4.32,11.34h-2.24l-1-2.4h-4.63l-1,2.4h-2.24Zm1.11,3-1.43,3.84h3Z"/><path class="cls-1" d="M225.47,64.24h1.11v8.31a3,3,0,0,0,.32,1.11,4.24,4.24,0,0,0,1,.8,3,3,0,0,0,1.28.32c.32,0,.8-.16,1.12-.16a1.6,1.6,0,0,0,.8-.64c.16-.32.48-.64.48-1a6.45,6.45,0,0,0,.16-1.75V64.4H233v6.87a6.17,6.17,0,0,1-.32,2.39,2.93,2.93,0,0,1-1.12,1.6,3.52,3.52,0,0,1-2.08.64,4.52,4.52,0,0,1-2.4-.64,2.85,2.85,0,0,1-1.28-1.76,12.8,12.8,0,0,1-.15-2.39Z"/><path class="cls-1" d="M234.73,65.35V64.24H241v1.11h-2.56V75.58h-1.12V65.35Z"/><path class="cls-1" d="M247.84,63.92a6.21,6.21,0,0,1,4.31,1.75,5.88,5.88,0,0,1,0,8.47A5.8,5.8,0,0,1,248,75.9a6.18,6.18,0,0,1-4.32-1.76A5.79,5.79,0,0,1,241.92,70a6.62,6.62,0,0,1,.8-3,5.93,5.93,0,0,1,5.12-3Zm0,1.12a4.77,4.77,0,0,0-4.16,2.39,4.92,4.92,0,0,0,4.16,7.35,4.16,4.16,0,0,0,2.39-.64A4.69,4.69,0,0,0,252,72.39a4.52,4.52,0,0,0,.64-2.4,4.17,4.17,0,0,0-.64-2.4,4.65,4.65,0,0,0-1.76-1.76A3.13,3.13,0,0,0,247.84,65Z"/><path class="cls-2" d="M12.3,0H69.51a12.3,12.3,0,0,1,12.3,12.3V69.51a12.3,12.3,0,0,1-12.3,12.3H12.3A12.3,12.3,0,0,1,0,69.51V12.3A12.41,12.41,0,0,1,12.3,0Z"/><path class="cls-1" d="M46.34,52.09l3.83,24.77h-22L26.69,59.6a146.09,146.09,0,0,0,19.65-7.51Z"/><path class="cls-1" d="M119.36,21.25l10.39-3.19v6.71L119.36,28V48.1H123l.64-2.56h6.23L128.31,54H111.69V12.62h7.67ZM106.9,54.17H99.23V47.62L88.68,49.7V43.14l10.55-2.07V26.37H88.68v-5.6H99.23v-8h7.67Z"/><path class="cls-1" d="M157.23,39v11.5l-6.71,4.32-4.31-4.48,3.67-2.23V39H135.66V21.89H171V39Zm.16-26.37.48,1.76h15.66v5.11H133.59V14.38H149.4l-.47-1.76ZM143.17,34.2h20.62V26.69H143.17ZM146.53,42l-5.27,11.82h-8.15L139,42Zm21.57,0,5.75,11.82h-7.67L160.59,42Z"/><path class="cls-1" d="M196.38,19.17l-.8,1.92H216V32.76h2.39V38H216v5.91H218v5H216v3.19l-5.28,3.2-4-4,2.56-1.44v-1h-19.5V38h-2.39v-.16l-3.52,16.46h-7.35l3.83-18.22h7v-3h-7l-3.83-8.95h7.35l3.67,8.63h2.08V23.65h-2.39l4.15-11.35h7.35l-.8,1.92h18.54v5Zm8.31,6.72,1.92,6.87h2.72V25.89Zm-8.15,6.87h4l-1.92-6.87h-2.08Zm0,11.18h4.16L199.26,38h-2.72Zm10.07,0h2.72V38h-4Z"/><path class="cls-1" d="M260.14,20v4.8l-5.59.48,2.07,7.83,5.6-3v5.59l-4.32,2.24,4.16,16h-6.39l-7.35-28.44h-1V48.58l3.67.64-1.28,5-8-1.6V21.41Zm1.76-7.19v5.28L240,19.49V54.33h-6.56l-1.91-5.59h1.91V14.22ZM233.45,36.11l-3.83,18.22h-7.51l3.83-18.22Zm-4.31-12,4,8.79h-7.51l-4-8.79Z"/><path class="cls-3" d="M184.08,12.94l4,8.79h-7.35l-4-8.79Z"/><path class="cls-3" d="M229,12.94l4.16,8.79h-7.67l-4-8.79Z"/><path class="cls-1" d="M71.43,27.16c-1.76-6.07-12.15-8.78-26.53-8l1,7c11.82-.16,20.13,1.91,20.93,5.91,1,4.47-7.67,10.38-21.09,15.34a166.17,166.17,0,0,1-19.33,5.59l-2.88.64a149.42,149.42,0,0,1-15.66,2.4c-2.58.28-5.2.5-7.83.63v8.14c1.23-.12,2.45-.27,3.68-.46a129,129,0,0,0,22.05-4.8l1-.32a144.76,144.76,0,0,0,19.65-7.51C63,44.1,73.5,34.36,71.43,27.16Z"/><path class="cls-3" d="M14.54,5,0,30.52V69.83a16,16,0,0,0,3.2-4.64l.48-.79,4.15-8.31,16-32.28,2.08,25.41a154.07,154.07,0,0,0,19.17-5.28L38.83,5Z"/></g></g></svg>