<svg xmlns="http://www.w3.org/2000/svg" viewBox="0 0 48 48"><defs><style>.cls-1{fill:#0c9;}.cls-2{fill:#fff;}</style></defs><title>资源 33</title><g id="图层_2" data-name="图层 2"><g id="图层_1-2" data-name="图层 1"><rect class="cls-1" width="48" height="48" rx="24"/><path class="cls-2" d="M23.78,21.65a1.49,1.49,0,0,1-1.47-1.46V14.5L20.85,16a1.48,1.48,0,0,1-2-2.14l3.94-3.94a1.44,1.44,0,0,1,2,0l3.94,4a1.73,1.73,0,0,1,.45,1,1.5,1.5,0,0,1-1.47,1.46,1.24,1.24,0,0,1-1-.45L25.24,14.5v5.69a1.49,1.49,0,0,1-1.46,1.46Z"/><path class="cls-2" d="M25,30.27a7.39,7.39,0,0,1,7.36-7.37,10.29,10.29,0,0,1,2.4.37V20.7a1,1,0,0,0-.55-.92S32,18.39,29.58,16.92a1,1,0,0,0-.46-.18,1.63,1.63,0,0,0-1.29,1,.74.74,0,0,0,.28.83,32.35,32.35,0,0,0,2.94,1.84l.37.19-7.64,4.87L16.13,20.6l.37-.19s1.29-.73,2.95-1.84a1.18,1.18,0,0,0,.46-1.19,1.29,1.29,0,0,0-1-.92.83.83,0,0,0-.46.09,34.71,34.71,0,0,0-5,3.13,1.23,1.23,0,0,0-.55.92v9.58a1,1,0,0,0,.55.92l9.77,6.17c.09.1.27.1.37.19h.73c.1,0,.1-.1.19-.1h.09l2.76-1.75A7.18,7.18,0,0,1,25,30.27Z"/><path class="cls-2" d="M32.64,23.87a6.45,6.45,0,1,0,6.45,6.45,6.41,6.41,0,0,0-6.45-6.45Z"/><path class="cls-1" d="M34.77,27.92l-1.4,1.42h.76c.28,0,.53.1.53.32v.06a.51.51,0,0,1-.53.44H33V31h1.11c.28,0,.53.09.53.32v.06a.5.5,0,0,1-.53.43H33V32.9c0,.29-.12.53-.35.53h-.05a.49.49,0,0,1-.42-.53V31.79H31a.4.4,0,0,1-.42-.43V31.3c0-.23.13-.32.42-.32H32.2v-.82H31a.4.4,0,0,1-.42-.44v-.06c0-.22.13-.32.42-.32h.89L30.49,28a.42.42,0,0,1,0-.6l0,0a.37.37,0,0,1,.54.05l1.55,1.55,1.57-1.58a.42.42,0,0,1,.59,0l0,0a.38.38,0,0,1,0,.55Z"/></g></g></svg>