<svg xmlns="http://www.w3.org/2000/svg" viewBox="0 0 48 48"><defs><style>.cls-1{fill:#3c4fff;}.cls-2{fill:#fff;}</style></defs><title>资源 32</title><g id="图层_2" data-name="图层 2"><g id="图层_1-2" data-name="图层 1"><rect class="cls-1" width="48" height="48" rx="24"/><path class="cls-2" d="M34.78,30.06H13.22a1.37,1.37,0,1,0,0,2.73H34.78a1.37,1.37,0,1,0,0-2.73Z"/><path class="cls-2" d="M34.78,35.27H13.22a1.37,1.37,0,1,0,0,2.73H34.78a1.37,1.37,0,1,0,0-2.73Z"/><path class="cls-2" d="M30,12l-4,4h2.16c.82,0,1.51.28,1.51.93v.16a1.43,1.43,0,0,1-1.51,1.24H25.07v2.32h3.14c.82,0,1.51.28,1.51.93v.16A1.43,1.43,0,0,1,28.21,23H25.07v3.14c0,.8-.34,1.51-1,1.51h-.16a1.4,1.4,0,0,1-1.18-1.51V23H19.29a1.15,1.15,0,0,1-1.2-1.24v-.16c0-.65.38-.93,1.2-.93h3.45V18.37H19.29a1.15,1.15,0,0,1-1.2-1.24V17c0-.65.38-.93,1.2-.93H21.8L17.89,12.1a1.21,1.21,0,0,1,0-1.71l.11-.11a1,1,0,0,1,1.54.15l4.39,4.39,4.47-4.47a1.2,1.2,0,0,1,1.68,0l.11.11A1.07,1.07,0,0,1,30,12Z"/></g></g></svg>