<svg xmlns="http://www.w3.org/2000/svg" viewBox="0 0 48 48"><defs><style>.cls-1{fill:#fe7531;}.cls-2{fill:#fff;}</style></defs><title>资源 35</title><g id="图层_2" data-name="图层 2"><g id="图层_1-2" data-name="图层 1"><rect class="cls-1" width="48" height="48" rx="24"/><path class="cls-2" d="M15.07,15.18a1.52,1.52,0,0,1,2.13,0l7.68,7.67a1.58,1.58,0,0,1,.24,2,1.51,1.51,0,0,1-2.29.2L15.07,17.3a1.51,1.51,0,0,1,0-2.12Zm20.42,7.65H26a2.47,2.47,0,0,1-.41,2.89,2.43,2.43,0,0,1-3.42,0l-2.89-2.89H12.52a1.74,1.74,0,0,0-1.71,2,1.81,1.81,0,0,0,1.81,1.46h.31l4,11.7H31.31l4-11.7h.18a1.74,1.74,0,0,0,0-3.47ZM17.08,27.39H31a.89.89,0,0,1,.89.89.88.88,0,0,1-.89.88H17.08a.89.89,0,1,1,0-1.77Zm2,7H29.17a.89.89,0,1,1,0,1.78H19a.89.89,0,0,1,0-1.78Zm-1-3.46H30.24a.89.89,0,0,1,0,1.77H18.05a.89.89,0,0,1,0-1.77Z"/><path class="cls-2" d="M31.58,21.46l4-3.95a.62.62,0,0,0-.44-1.07h-1.9V12.05a2.05,2.05,0,0,0-2-2.05h0a2.05,2.05,0,0,0-2.05,2.05v4.39H27.18a.63.63,0,0,0-.44,1.07l4,3.95A.62.62,0,0,0,31.58,21.46Z"/></g></g></svg>