<svg xmlns="http://www.w3.org/2000/svg" viewBox="0 0 48 48"><defs><style>.cls-1{fill:#488ff9;}.cls-2{fill:#fff;}</style></defs><title>资源 34</title><g id="图层_2" data-name="图层 2"><g id="图层_1-2" data-name="图层 1"><rect class="cls-1" width="48" height="48" rx="24"/><path class="cls-2" d="M28.52,15.92l-3,3h1.62c.61,0,1.13.21,1.13.7v.12a1.06,1.06,0,0,1-1.13.92H24.8v1.74h2.35c.61,0,1.13.21,1.13.7v.12a1.07,1.07,0,0,1-1.13.93H24.8v2.35c0,.6-.25,1.13-.74,1.13h-.12a1,1,0,0,1-.88-1.13V24.16H20.47a.85.85,0,0,1-.89-.93v-.12c0-.49.28-.7.89-.7h2.59V20.67H20.47a.85.85,0,0,1-.89-.92v-.12c0-.49.28-.7.89-.7h1.88L19.42,16a.92.92,0,0,1,0-1.28l.09-.08a.77.77,0,0,1,1.15.11L23.94,18l3.35-3.35a.9.9,0,0,1,1.26,0l.08.09a.79.79,0,0,1-.11,1.17Z"/><path class="cls-2" d="M11.82,12.3V35.7a2.3,2.3,0,0,0,2.3,2.3h1.21a1.13,1.13,0,0,0,.81-.34l.7-.69a.49.49,0,0,1,.69,0l.69.69A1.15,1.15,0,0,0,19,38h3.11a1.14,1.14,0,0,0,.81-.34l.7-.69a.48.48,0,0,1,.68,0l.7.69a1.14,1.14,0,0,0,.81.34H29a1.15,1.15,0,0,0,.82-.34l.69-.69a.49.49,0,0,1,.69,0l.7.69a1.13,1.13,0,0,0,.81.34h1.21a2.3,2.3,0,0,0,2.3-2.3V12.3a2.3,2.3,0,0,0-2.3-2.3H14.12A2.3,2.3,0,0,0,11.82,12.3ZM31.51,33.87a1,1,0,0,0-1.38,0l-1.91,1.9a1.15,1.15,0,0,1-1.63,0l-1.9-1.9a1,1,0,0,0-1.38,0l-1.9,1.9a1.15,1.15,0,0,1-1.63,0l-1.91-1.9a1,1,0,0,0-1.38,0L14.8,35.56a.46.46,0,0,1-.78-.33V13.34a1.15,1.15,0,0,1,1.15-1.15H32.83A1.15,1.15,0,0,1,34,13.34V35.23a.46.46,0,0,1-.78.33Z"/><rect class="cls-2" x="12.77" y="30.01" width="5" height="1.5" rx="0.75"/><rect class="cls-2" x="18.77" y="30.01" width="5" height="1.5" rx="0.75"/><rect class="cls-2" x="24.77" y="30.01" width="5" height="1.5" rx="0.75"/><rect class="cls-2" x="30.77" y="30.01" width="5" height="1.5" rx="0.75"/></g></g></svg>