<svg xmlns="http://www.w3.org/2000/svg" viewBox="0 0 18 18"><defs><style>.cls-1{fill:#fff;}.cls-2{fill:#49a9ea;}</style></defs><title>资源 109</title><g id="图层_2" data-name="图层 2"><g id="图层_1-2" data-name="图层 1"><path class="cls-1" d="M8.87,18A9,9,0,1,1,18,9.13,9,9,0,0,1,8.87,18Z"/><path class="cls-2" d="M11.89,3.79a.66.66,0,0,1,0,.94L7.66,8.82a.23.23,0,0,0,0,.32l4.1,4.22a.66.66,0,1,1-.95.92L6.17,9.52A.63.63,0,0,1,6,9,.43.43,0,0,0,6,9a.43.43,0,0,1,0-.05.65.65,0,0,1,.18-.51L11,3.77A.67.67,0,0,1,11.89,3.79Z"/></g></g></svg>