<svg xmlns="http://www.w3.org/2000/svg" xmlns:xlink="http://www.w3.org/1999/xlink" viewBox="0 0 18 18"><defs><style>.cls-1{fill:none;}.cls-2{fill:#fff;}.cls-3{clip-path:url(#clip-path);}.cls-4{fill:#49a9ea;}</style><clipPath id="clip-path"><rect class="cls-1" x="2.55" y="2.98" width="13.05" height="11.71"/></clipPath></defs><title>资源 111</title><g id="图层_2" data-name="图层 2"><g id="图层_1-2" data-name="图层 1"><path class="cls-2" d="M9,18a9,9,0,1,1,9-9,9,9,0,0,1-9,9Z"/><g class="cls-3"><path class="cls-4" d="M11.85,12.71a5.14,5.14,0,0,1-2.65.8A4.77,4.77,0,0,1,4.34,8.77a4.23,4.23,0,0,1,.43-1.91l.07.43A.48.48,0,0,0,5.76,7L5.2,5.32A.49.49,0,0,0,4.59,5l-1.72.61a.51.51,0,0,0-.31.62.5.5,0,0,0,.61.3l.68-.18a5.85,5.85,0,0,0-.61,2.52,5.84,5.84,0,0,0,5.9,5.79,6,6,0,0,0,3.26-.93.59.59,0,0,0,.19-.74c-.19-.36-.49-.49-.74-.3Zm3.69-1.17a.45.45,0,0,0-.61-.25l-.56.25a5.53,5.53,0,0,0,.74-2.77A5.84,5.84,0,0,0,9.2,3,6.24,6.24,0,0,0,5.88,4a.59.59,0,0,0-.18.74.51.51,0,0,0,.74.12A5.17,5.17,0,0,1,9.14,4,4.76,4.76,0,0,1,14,8.77,4.5,4.5,0,0,1,13.45,11s0,.07-.06.07l-.19-.5a.47.47,0,0,0-.86.37L13,12.58a.45.45,0,0,0,.61.25l1.67-.68a.45.45,0,0,0,.24-.61Z"/></g></g></g></svg>