<svg id="图层_1" data-name="图层 1" xmlns="http://www.w3.org/2000/svg" viewBox="0 0 26.8 26.8"><defs><style>.cls-1{fill:#fff;}</style></defs><title>添加</title><path class="cls-1" d="M258,527.62a13.4,13.4,0,1,0,0,19A13.4,13.4,0,0,0,258,527.62Zm-2,17a10.65,10.65,0,1,1,0-15.06A10.65,10.65,0,0,1,256.09,544.63Z" transform="translate(-235.16 -523.7)"/><path class="cls-1" d="M255.2,535.88h-5.42v-5.42a1.22,1.22,0,0,0-2.44,0v5.42h-5.42a1.22,1.22,0,1,0,0,2.44h5.42v5.42a1.22,1.22,0,0,0,2.44,0v-5.42h5.42a1.22,1.22,0,0,0,0-2.44Z" transform="translate(-235.16 -523.7)"/></svg>