<svg id="图层_1" data-name="图层 1" xmlns="http://www.w3.org/2000/svg" viewBox="0 0 29 34"><defs><style>.cls-1{fill:#d9d9d9;}</style></defs><title>日历</title><rect class="cls-1" x="6" y="19" width="18" height="3" rx="1.5"/><rect class="cls-1" x="1" y="12" width="27" height="3" rx="1.5"/><rect class="cls-1" x="10" y="24" width="10" height="3" rx="1.5"/><rect class="cls-1" x="242.5" y="460.5" width="10" height="3" rx="1.5" transform="translate(471.5 -242.5) rotate(90)"/><rect class="cls-1" x="252.5" y="460.5" width="10" height="3" rx="1.5" transform="translate(481.5 -252.5) rotate(90)"/><path class="cls-1" d="M261.39,461H243.61a5.82,5.82,0,0,0-5.61,6v18a5.82,5.82,0,0,0,5.61,6h17.78a5.82,5.82,0,0,0,5.61-6V467A5.82,5.82,0,0,0,261.39,461Zm2.8,23.1a3.87,3.87,0,0,1-3.74,4h-15.9a3.87,3.87,0,0,1-3.74-4V467.9a3.87,3.87,0,0,1,3.74-4h15.9a3.87,3.87,0,0,1,3.74,4Z" transform="translate(-238 -457)"/></svg>