<svg id="图层_1" data-name="图层 1" xmlns="http://www.w3.org/2000/svg" viewBox="0 0 49.53 51.24"><defs><style>.cls-1{fill:#999;}</style></defs><title>复选（未选中</title><path class="cls-1" d="M-10.91,680.92H-41.27c-5.29,0-9.58,4.58-9.58,10.24v30.75c0,5.65,4.29,10.24,9.58,10.24h30.36c5.29,0,9.59-4.59,9.59-10.24V691.16C-1.32,685.5-5.62,680.92-10.91,680.92Zm4.79,39.44a6.62,6.62,0,0,1-6.39,6.83H-39.67a6.62,6.62,0,0,1-6.39-6.83V692.71a6.62,6.62,0,0,1,6.39-6.83h27.16a6.62,6.62,0,0,1,6.39,6.83Z" transform="translate(50.85 -680.92)"/></svg>