<svg id="图层_1" data-name="图层 1" xmlns="http://www.w3.org/2000/svg" viewBox="0 0 49.53 51.24"><defs><style>.cls-1{fill:#49a9ea;}</style></defs><title>复选（选中</title><path class="cls-1" d="M-28.91,618.92H-59.27c-5.29,0-9.58,4.59-9.58,10.24v30.75c0,5.65,4.29,10.24,9.58,10.24h30.36c5.29,0,9.59-4.59,9.59-10.24V629.16C-19.32,623.51-23.62,618.92-28.91,618.92Zm4.79,39.44a6.62,6.62,0,0,1-6.39,6.83H-57.67a6.62,6.62,0,0,1-6.39-6.83V630.71a6.62,6.62,0,0,1,6.39-6.83h27.16a6.62,6.62,0,0,1,6.39,6.83Z" transform="translate(68.85 -618.92)"/><path class="cls-1" d="M-35.12,635.58l-11.72,11.71L-53,641.08a3,3,0,0,0-4.24,0,3,3,0,0,0,0,4.24l8.17,8.17a2.93,2.93,0,0,0,2.28.86,3,3,0,0,0,2.29-.86l13.67-13.67a3,3,0,0,0,0-4.24A3,3,0,0,0-35.12,635.58Z" transform="translate(68.85 -618.92)"/></svg>