<svg id="图层_1" data-name="图层 1" xmlns="http://www.w3.org/2000/svg" viewBox="0 0 63 63"><defs><style>.cls-1{fill:red;}</style></defs><title>删除</title><path class="cls-1" d="M228.05,696.34a31.5,31.5,0,1,0,31.5,31.5A31.62,31.62,0,0,0,228.05,696.34Zm12.49,40.25a2,2,0,0,1,0,2.83l-.91.91a2,2,0,0,1-2.83,0l-8.75-8.75-8.74,8.75a2,2,0,0,1-2.83,0l-.91-.91a2,2,0,0,1,0-2.83l8.74-8.75-8.74-8.74a2,2,0,0,1,0-2.83l.91-.91a2,2,0,0,1,2.83,0l8.74,8.74,8.75-8.74a2,2,0,0,1,2.83,0l.91.91a2,2,0,0,1,0,2.83l-8.75,8.74Z" transform="translate(-196.55 -696.34)"/></svg>