<svg xmlns="http://www.w3.org/2000/svg" width="182" height="197.644" viewBox="0 0 182 197.644">
  <g id="组_401" data-name="组 401" transform="translate(-271 -319)">
    <g id="组_399" data-name="组 399" transform="translate(-79.803 244.693)">
      <path id="路径_75" data-name="路径 75" d="M526.517,145.681h-120.2l118.5-33.734c3.036-.607,2.3-3.807,1.7-6.837s0-4.162-3.036-3.555L375.946,148.262h-6.679a5.452,5.452,0,0,0-5.464,5.464V184.66c0,1.214.607,33.97,43.714,47.922v8.494a5.441,5.441,0,0,0,5.464,5.458h71.643c1.451.006-1.032-.565,0-1.591s2.289-2.416,2.283-3.868l1.59-8.494c43.107-13.952,41.088-45.46,41.088-46.674l1.036-32.182C530.014,150.691,529.553,145.681,526.517,145.681Z" transform="translate(0 20.773)" fill="#49a9ea"/>
      <path id="路径_76" data-name="路径 76" d="M368.887,154.481h1.821l144.5-47.162c3.036-.607,4.245-2.558,3.638-5.594s-.6-4.874-3.638-4.267L367.672,144.166c-3.036.607-4.25,3.637-3.643,6.672a4.617,4.617,0,0,0,4.857,3.643Z" transform="translate(0.381 -15)" fill="#49a9ea"/>
    </g>
    <path id="交叉_1" data-name="交叉 1" d="M-699.178-14537.036h-6.917v-16.579a133.317,133.317,0,0,0,25.155-15.936c12.906-10.36,19.121-15.138,18.485-47.649-.193-9.794-.457-16.334-.733-20.691h5.9c3.037,0,3.5,5.011,4.1,8.048l-1.035,32.183c0,1.212,2.017,32.722-41.091,46.673l-1.589,8.5c0,1.448-1.256,2.841-2.283,3.864s1.422,1.593.022,1.593Z" transform="translate(1104 15049.037)" fill="#1e8fdc"/>
    <g id="组_396" data-name="组 396" transform="translate(-86.803 242.693)">
      <g id="路径_75-2" data-name="路径 75" transform="translate(0 20.773)" fill="none" stroke-linecap="round" stroke-linejoin="round">
        <path d="M527.731,148.262H409.946L526.517,111.87c3.036-.607,4.25-3.643,3.643-6.673s-3.643-4.25-6.679-3.643L375.946,148.262h-6.679a5.452,5.452,0,0,0-5.464,5.464V184.66c0,1.214.607,33.97,43.714,47.922v8.494a5.441,5.441,0,0,0,5.464,5.458h71.643a5.431,5.431,0,0,0,5.464-5.458v-8.494C533.2,218.63,533.8,185.875,533.8,184.66V153.726A6.456,6.456,0,0,0,527.731,148.262Z" stroke="none"/>
        <path d="M 524.98779296875 101.4029388427734 C 524.4930419921875 101.4029235839844 523.9871826171875 101.4535217285156 523.481201171875 101.5547332763672 L 375.9456787109375 148.2621459960938 L 369.26708984375 148.2621459960938 C 369.2595825195313 148.2621154785156 369.2518920898438 148.2621002197266 369.244384765625 148.2621002197266 C 367.8015747070313 148.2621002197266 366.4202880859375 148.838134765625 365.399658203125 149.8589477539063 C 364.37353515625 150.8849792480469 363.7967529296875 152.2753143310547 363.802978515625 153.7264251708984 L 363.802978515625 184.6602478027344 C 363.802978515625 185.8745574951172 364.4100952148438 218.6298065185547 407.5169677734375 232.5819396972656 L 407.5169677734375 241.0758361816406 C 407.510986328125 242.5269470214844 408.0877990722656 243.9172515869141 409.1137084960938 244.9433288574219 C 410.1343688964844 245.9639282226563 411.5157775878906 246.5340881347656 412.9583435058594 246.5340881347656 C 412.966064453125 246.5340881347656 412.9736022949219 246.5340576171875 412.9813232421875 246.5340270996094 L 484.6241760253906 246.5340270996094 C 484.6318054199219 246.5340576171875 484.6395263671875 246.5340881347656 484.6471252441406 246.5340881347656 C 486.0897827148438 246.5340881347656 487.4708557128906 245.9639892578125 488.4975891113281 244.9433288574219 C 489.5237121582031 243.9172515869141 490.0945129394531 242.5269470214844 490.0882568359375 241.0758361816406 L 490.0882568359375 232.5819396972656 C 533.1953735351563 218.6298065185547 533.802490234375 185.8745574951172 533.802490234375 184.6602478027344 L 533.802490234375 153.7264251708984 C 533.1953735351563 150.6907501220703 530.7669067382813 148.2621459960938 527.7310791015625 148.2621459960938 L 409.9457092285156 148.2621459960938 L 526.5167846679688 111.8700866699219 C 529.5524291992188 111.2628936767578 530.7669067382813 108.2272491455078 530.1597900390625 105.1975860595703 C 529.6536865234375 102.6678771972656 527.461181640625 101.4029998779297 524.98779296875 101.4029388427734 M 524.9873046875 95.4029541015625 C 524.9874267578125 95.4029541015625 524.9874267578125 95.4029541015625 524.9874877929688 95.4029541015625 C 530.5690307617188 95.40309143066406 535.011962890625 98.86619567871094 536.043212890625 104.0205078125 C 536.6116333007813 106.8570556640625 536.26611328125 109.7366790771484 535.0701293945313 112.1270599365234 C 533.6033935546875 115.0584716796875 530.914794921875 117.1092529296875 527.693603515625 117.7535552978516 L 449.2629089355469 142.2621459960938 L 527.7310791015625 142.2621459960938 C 533.466064453125 142.2621459960938 538.4937744140625 146.5887298583984 539.6859741210938 152.5497589111328 C 539.763427734375 152.9371948242188 539.802490234375 153.3313140869141 539.802490234375 153.7264251708984 L 539.802490234375 184.6602478027344 C 539.802490234375 186.1705322265625 539.2888793945313 220.7900543212891 496.0882568359375 236.8486938476563 L 496.0882568359375 241.0758361816406 C 496.1014404296875 244.1244201660156 494.9124145507813 247.0138397216797 492.7401733398438 249.18603515625 C 490.5637512207031 251.3495330810547 487.694091796875 252.5340881347656 484.6471557617188 252.5340881347656 L 412.9813232421875 252.5340270996094 C 409.9024353027344 252.5340881347656 407.0303649902344 251.3450927734375 404.8712463378906 249.1861419677734 C 402.7268981933594 247.0414428710938 401.5045166015625 244.0765075683594 401.5170288085938 241.051025390625 L 401.5169982910156 236.8487091064453 C 358.3165893554688 220.7900543212891 357.802978515625 186.1705322265625 357.802978515625 184.6602478027344 L 357.802978515625 153.7264251708984 C 357.7900390625 150.7259979248047 359.0125732421875 147.7605285644531 361.1571655273438 145.6161499023438 C 363.3194580078125 143.4534454345703 366.1917114257813 142.2620849609375 369.244384765625 142.2620849609375 L 375.0186157226563 142.2621307373047 L 521.6702880859375 95.83453369140625 C 523.2055053710938 95.49105834960938 524.1064453125 95.4029541015625 524.9873046875 95.4029541015625 Z" stroke="none" fill="#333"/>
      </g>
      <g id="路径_76-2" data-name="路径 76" transform="translate(0.381 -15)" fill="none" stroke-linecap="round" stroke-linejoin="round">
        <path d="M368.887,154.481h1.821l147.536-46.707c3.036-.607,4.25-3.643,3.643-6.679s-3.643-4.244-6.679-3.637L367.672,144.166c-3.036.607-4.25,3.637-3.643,6.672a4.617,4.617,0,0,0,4.857,3.643Z" stroke="none"/>
        <path d="M 370.7080688476563 154.4814758300781 L 518.2435913085938 107.7740783691406 C 521.2794189453125 107.1669464111328 522.493408203125 104.1312103271484 521.8865356445313 101.0955505371094 C 521.3806762695313 98.57108306884766 519.1881713867188 97.30694580078125 516.7149658203125 97.30694580078125 C 516.2200317382813 97.30694580078125 515.7141723632813 97.35752105712891 515.2080078125 97.45876312255859 L 367.6724548339844 144.1661834716797 C 364.6368408203125 144.7732849121094 363.4225769042969 147.8029479980469 364.0297241210938 150.8386077880859 C 364.6368408203125 153.2672271728516 366.4581909179688 154.4814758300781 368.8866882324219 154.4814758300781 L 370.7080688476563 154.4814758300781 M 370.7080688476563 160.4814758300781 L 368.8866882324219 160.4814758300781 C 363.6435546875 160.4814758300781 359.4522399902344 157.2676086425781 358.2088623046875 152.2937622070313 C 357.578125 149.1747283935547 357.9238891601563 146.2947082519531 359.1198120117188 143.90576171875 C 360.5863037109375 140.9764251708984 363.2747192382813 138.9268951416016 366.4957885742188 138.2826843261719 L 513.3970947265625 91.73857879638672 C 514.9326782226563 91.39499664306641 515.8336791992188 91.30694580078125 516.7149658203125 91.30694580078125 C 522.295166015625 91.30694580078125 526.7376098632813 94.76691436767578 527.7695922851563 99.91667938232422 C 529.0926513671875 106.5349426269531 525.5029907226563 112.4411010742188 519.4202270507813 113.6575775146484 L 372.5189819335938 160.20166015625 C 371.9332275390625 160.3871002197266 371.3224487304688 160.4814758300781 370.7080688476563 160.4814758300781 Z" stroke="none" fill="#333"/>
      </g>
    </g>
    <g id="组_397" data-name="组 397" transform="translate(-29 -18)">
      <g id="椭圆_23" data-name="椭圆 23" transform="translate(389 446)" fill="#49a9ea" stroke="#333" stroke-width="6">
        <circle cx="42.5" cy="42.5" r="42.5" stroke="none"/>
        <circle cx="42.5" cy="42.5" r="39.5" fill="none"/>
      </g>
      <path id="减去_5" data-name="减去 5" d="M-751.054-14620a21.877,21.877,0,0,1-5.923-.821c7.55-.942,14.542-5.656,19.689-13.276,5.179-7.666,8.031-17.622,8.031-28.032,0-14.637-5.778-28.347-15.078-35.781a25.53,25.53,0,0,1,8.892,5.118,34.673,34.673,0,0,1,7.077,8.641,44.84,44.84,0,0,1,4.676,11.368,52.262,52.262,0,0,1,1.689,13.3,51.663,51.663,0,0,1-2.283,15.37,42.3,42.3,0,0,1-6.226,12.553,30.322,30.322,0,0,1-9.235,8.462A22.46,22.46,0,0,1-751.054-14620Z" transform="translate(-2879.242 14787.301) rotate(16)" fill="#1e8fdc"/>
      <g id="组件_24_3" data-name="组件 24 – 3" transform="translate(414 475)">
        <path id="路径_10" data-name="路径 10" d="M362.57,448.181l15.512,13.7,20.224-27" transform="translate(-362.57 -434.88)" fill="none" stroke="#333" stroke-linecap="round" stroke-linejoin="round" stroke-width="6"/>
      </g>
      <g id="椭圆_26" data-name="椭圆 26" transform="translate(389 446)" fill="none" stroke="#333" stroke-width="6">
        <circle cx="42.5" cy="42.5" r="42.5" stroke="none"/>
        <circle cx="42.5" cy="42.5" r="39.5" fill="none"/>
      </g>
    </g>
  </g>
</svg>
