<svg xmlns="http://www.w3.org/2000/svg" viewBox="0 0 937.48 931.3"><defs><style>.cls-1{fill:#fff;}.cls-2{fill:#49a9ea;}.cls-3{fill:#e5eafe;}</style></defs><title>资源 12</title><g id="图层_2" data-name="图层 2"><g id="图层_1-2" data-name="图层 1"><path class="cls-1" d="M121.14,864.52a4,4,0,0,1,2.75,2.05,12.29,12.29,0,0,1,1.45,4.08,22.84,22.84,0,0,1,.32,5.12,21.08,21.08,0,0,1-.75,5,12.19,12.19,0,0,1-1.72,3.77,2.78,2.78,0,0,1-2.48,1.4q-3.43-.11-7.64-.11c-2.8,0-5.75,0-8.88,0s-6.33.09-9.63.16-6.56.18-9.79.33q-2.37,4-4.58,7.8t-4,7.05q-1.83,3.22-3.18,5.65c-.89,1.61-1.56,2.78-2,3.5a3.33,3.33,0,0,1-3.06,1.88,8.32,8.32,0,0,1-4.09-1,8.23,8.23,0,0,1-3.18-2.8,3.46,3.46,0,0,1-.21-3.71c.64-1.36,1.92-3.64,3.82-6.83s4.1-6.8,6.62-10.82l-5.92.43a2.58,2.58,0,0,1-2.59-1.45,15.21,15.21,0,0,1-1.77-4.2,23.82,23.82,0,0,1-.81-5.6,26.69,26.69,0,0,1,.38-5.75A13.58,13.58,0,0,1,61.79,866a4.37,4.37,0,0,1,3.18-2.2c2.72-.36,5.92-.63,9.57-.81s7.54-.3,11.63-.38q2.14-3.44,3.87-6l2.69-3.93a3.51,3.51,0,0,1,3.07-1.56,6,6,0,0,1,3.39,1.13,6.63,6.63,0,0,1,2.26,2.85,3.63,3.63,0,0,1-.32,3.5l-2.48,4.09q6.57.21,12.43.65A97.43,97.43,0,0,1,121.14,864.52ZM83.05,925.86a3.22,3.22,0,0,1-2.75-2,8.59,8.59,0,0,1-.75-3.87,8.42,8.42,0,0,1,1-3.82,2.79,2.79,0,0,1,2.53-1.72c3.58.14,7.21.14,10.87,0,.14-1.65.25-3.43.32-5.33s.14-3.75.21-5.54l-9.79.53a2.72,2.72,0,0,1-2.74-1.23,8.23,8.23,0,0,1-1.19-6.84,2.6,2.6,0,0,1,2-2,25.42,25.42,0,0,1,3.88-.54q2.58-.21,5.86-.38t6.89-.27c2.4-.07,4.68-.08,6.84-.05s4.08.09,5.81.16a37.45,37.45,0,0,1,3.87.32,2.49,2.49,0,0,1,1.88,1.83,8.6,8.6,0,0,1,.49,3.5,8.19,8.19,0,0,1-.86,3.34,2.28,2.28,0,0,1-2,1.45c-1.07-.07-2.6-.11-4.57-.11s-4.14,0-6.51.11c.14,1.72.23,3.48.27,5.27s0,3.52,0,5.17q2.37-.21,4.68-.48c1.55-.18,3.1-.42,4.68-.7a2.57,2.57,0,0,1,2.75,1.34,9.16,9.16,0,0,1,1.45,3.82,7.46,7.46,0,0,1-.48,4.09,3.88,3.88,0,0,1-3.07,2.37q-3.45.64-7.53,1.08t-8.29.7c-2.8.17-5.56.25-8.29.21S85.27,926.08,83.05,925.86Z"/><path class="cls-1" d="M228.77,864.52a4,4,0,0,1,2.74,2.05,12.07,12.07,0,0,1,1.45,4.08,23.42,23.42,0,0,1,.33,5.12,21.59,21.59,0,0,1-.76,5,12.19,12.19,0,0,1-1.72,3.77,2.77,2.77,0,0,1-2.47,1.4q-3.45-.11-7.65-.11t-8.87,0q-4.69.06-9.64.16c-3.3.08-6.56.18-9.79.33q-2.37,4-4.57,7.8c-1.48,2.55-2.82,4.9-4,7.05s-2.28,4-3.18,5.65-1.55,2.78-2,3.5a3.33,3.33,0,0,1-3.06,1.88,8.32,8.32,0,0,1-4.09-1,8.23,8.23,0,0,1-3.18-2.8,3.46,3.46,0,0,1-.21-3.71c.64-1.36,1.92-3.64,3.82-6.83s4.1-6.8,6.62-10.82l-5.92.43A2.58,2.58,0,0,1,170,886.1a15.21,15.21,0,0,1-1.77-4.2,23.82,23.82,0,0,1-.81-5.6,27.34,27.34,0,0,1,.38-5.75,13.58,13.58,0,0,1,1.61-4.58,4.37,4.37,0,0,1,3.18-2.2c2.72-.36,5.92-.63,9.58-.81s7.53-.3,11.62-.38c1.43-2.29,2.73-4.28,3.87-6l2.69-3.93a3.52,3.52,0,0,1,3.07-1.56,6,6,0,0,1,3.39,1.13,6.63,6.63,0,0,1,2.26,2.85,3.63,3.63,0,0,1-.32,3.5l-2.48,4.09q6.57.21,12.43.65A98,98,0,0,1,228.77,864.52Zm-2.91,31.32a7.17,7.17,0,0,1,3,3.5,22,22,0,0,1,1.73,5.81A36.34,36.34,0,0,1,231,912a35.68,35.68,0,0,1-.81,6.62,17.62,17.62,0,0,1-2.05,5.27,5.7,5.7,0,0,1-3.28,2.75,49.08,49.08,0,0,1-8,1.4c-3,.28-5.94.43-9,.43a80.73,80.73,0,0,1-9-.49,59.29,59.29,0,0,1-7.85-1.34,6,6,0,0,1-3.71-2.85,17.4,17.4,0,0,1-2.16-5.49,32.21,32.21,0,0,1-.7-6.84,35,35,0,0,1,.65-6.88,22.78,22.78,0,0,1,1.88-5.71,7,7,0,0,1,3-3.33,27.58,27.58,0,0,1,7.75-1.94,79.88,79.88,0,0,1,10.33-.65,66.87,66.87,0,0,1,10.23.75A25.41,25.41,0,0,1,225.86,895.84Zm-7.43,23.67c1-.35,1.73-1.34,2.16-3a20.41,20.41,0,0,0,.64-5.27,25.76,25.76,0,0,0-.54-5.38c-.36-1.68-.82-2.74-1.39-3.17a9.14,9.14,0,0,0-3.93-1.19,46.16,46.16,0,0,0-6.46-.43,58.47,58.47,0,0,0-6.73.38,16.64,16.64,0,0,0-4.84,1.13c-.79.43-1.42,1.49-1.88,3.17a20.21,20.21,0,0,0-.7,5.44,18.51,18.51,0,0,0,.75,5.38c.5,1.65,1.26,2.62,2.26,2.9a26.81,26.81,0,0,0,4.68.81c1.83.18,3.71.29,5.65.32a47.62,47.62,0,0,0,5.65-.21A21.05,21.05,0,0,0,218.43,919.51Z"/><path class="cls-1" d="M275.37,879.8a13.06,13.06,0,0,1,5.11,1,13.22,13.22,0,0,1,4.19,2.8,13.32,13.32,0,0,1,2.8,14.48,13.73,13.73,0,0,1-2.8,4.2,12.71,12.71,0,0,1-4.19,2.85,13.06,13.06,0,0,1-5.11,1,12.93,12.93,0,0,1-5.17-1,13.52,13.52,0,0,1-4.2-2.85,13.35,13.35,0,0,1-2.85-4.2,12.93,12.93,0,0,1-1-5.17,13.06,13.06,0,0,1,1-5.11,12.71,12.71,0,0,1,2.85-4.2,14.1,14.1,0,0,1,4.2-2.8A12.93,12.93,0,0,1,275.37,879.8Zm5.38-28.09a12.13,12.13,0,0,1,8.77,3.66,13.07,13.07,0,0,1,2.63,4,12.14,12.14,0,0,1,1,4.85,11.72,11.72,0,0,1-1,4.79,13,13,0,0,1-2.63,3.92,11.91,11.91,0,0,1-3.93,2.69,12.59,12.59,0,0,1-9.69,0,11.87,11.87,0,0,1-3.92-2.69,12.89,12.89,0,0,1-2.64-3.92,11.72,11.72,0,0,1-1-4.79,12.14,12.14,0,0,1,1-4.85,12.92,12.92,0,0,1,2.64-4,12.09,12.09,0,0,1,8.77-3.66Zm3.66,58.55a7.43,7.43,0,0,1,5.48,2.26,7.59,7.59,0,0,1,0,10.81,7.55,7.55,0,0,1-5.48,2.21,7.46,7.46,0,0,1-5.39-2.21,7.67,7.67,0,0,1,5.39-13.07Zm48.21,2.58c.5.07.88.45,1.13,1.13a5.38,5.38,0,0,1,.32,2.15,5.77,5.77,0,0,1-.48,2.1c-.29.65-.65,1-1.08,1h-9.09c-1.9,0-3.84,0-5.81,0s-3.75.1-5.33.17q.21,1.5.27,2.79a10.13,10.13,0,0,0,.27,2.16,2.15,2.15,0,0,1-1.51,2.15,10.48,10.48,0,0,1-3.66.91,11.14,11.14,0,0,1-3.82-.32c-1.18-.32-1.85-.88-2-1.67s-.31-1.83-.48-3.33-.33-3.23-.43-5.17-.17-4-.17-6.24a54.18,54.18,0,0,1,.38-6.46,43.24,43.24,0,0,1,1.08-5.81,12.49,12.49,0,0,1,2-4.41,6.82,6.82,0,0,1,3.33-2,29.65,29.65,0,0,1,5.82-1.29q3.33-.42,7.26-.59t7.59,0a53.34,53.34,0,0,1,6.72.81,21.65,21.65,0,0,1,4.9,1.45,6.07,6.07,0,0,0-.11-4.14,2.63,2.63,0,0,0-2.26-1.56c-1.86-.14-4.14-.22-6.83-.22s-5.56.06-8.61.17-6.17.3-9.36.59-6.19.68-9,1.18c0,.93,0,1.81.11,2.64s.14,1.6.21,2.31-.45,1.56-1.56,2.1a9,9,0,0,1-3.76.86,10.4,10.4,0,0,1-3.88-.59,2.31,2.31,0,0,1-1.77-2.26q0-2.26-.06-3.87a25.74,25.74,0,0,1,.06-3.07c.07-1,.14-2,.21-3s.22-2.19.43-3.55a1.72,1.72,0,0,1,.92-1.24,6.78,6.78,0,0,1,2-.75,10.31,10.31,0,0,1,4.95.16q-.11-3.88-.06-6.67a38.43,38.43,0,0,1,.38-4.95,25.15,25.15,0,0,1,.86-3.88,28.62,28.62,0,0,1,1.4-3.55,6.36,6.36,0,0,1,3.17-2.8,24.41,24.41,0,0,1,5.82-1.88,37.79,37.79,0,0,1,7.26-.75,46.57,46.57,0,0,1,7.53.48A27.73,27.73,0,0,1,334.5,856a10.32,10.32,0,0,1,4.47,3.29,16.31,16.31,0,0,1,2.47,7.21,115.36,115.36,0,0,1,.87,11.94,19.66,19.66,0,0,1,4.73,1.29,3.73,3.73,0,0,1,1.78,2.59,17.39,17.39,0,0,1,.48,4.19,40.77,40.77,0,0,1-.21,4.26,16.64,16.64,0,0,1-.43,2.63,3,3,0,0,1-2.37,1.94,9,9,0,0,1-3.66.11,21.53,21.53,0,0,1,2,6.78,59.91,59.91,0,0,1,.59,8.5,67.46,67.46,0,0,1-.54,8.61,42,42,0,0,1-1.4,7,2.45,2.45,0,0,1-2,1.62,12.55,12.55,0,0,1-3.49.38,9.33,9.33,0,0,1-3.18-.6c-.9-.36-1.27-.79-1.13-1.29a32.21,32.21,0,0,0,1.56-6.24,62.94,62.94,0,0,0,.75-7.48,66.5,66.5,0,0,0-.05-7.1,24.42,24.42,0,0,0-.75-5.11c-.15-.58-.79-1.06-1.94-1.46a19.68,19.68,0,0,0-4-.86A32.84,32.84,0,0,0,324,898c-1.83.07-3.52.22-5.06.43a18.53,18.53,0,0,0-3.93.92c-1.08.39-1.69.84-1.83,1.34a4.42,4.42,0,0,0-.16.59,2.74,2.74,0,0,0-.06.59c1.58-.07,3.34-.1,5.28-.1s3.82,0,5.65.1l5.06.22a32.89,32.89,0,0,1,3.6.32,1.42,1.42,0,0,1,1.19,1.13,6.2,6.2,0,0,1,.26,2.16,5.56,5.56,0,0,1-.48,2.09c-.29.65-.65,1-1.08,1h-9.09c-1.9,0-3.84,0-5.81,0s-3.75.1-5.33.17a14.19,14.19,0,0,0-.11,1.72v1.72c1.58-.07,3.38-.12,5.38-.16s4,0,6,0l5.43.22A34.13,34.13,0,0,1,332.62,912.84ZM318,869.79a8.44,8.44,0,0,0-1.34-.32l-1.56-.21c0,1.36.05,2.7.16,4s.27,2.82.48,4.47l3.77-.22a24.91,24.91,0,0,0-.27-4.89C319,871,318.56,870.08,318,869.79Zm7.11-4.73a4.92,4.92,0,0,1,1.45,2,15.27,15.27,0,0,1,.91,3.18,28.62,28.62,0,0,1,.43,3.66,29,29,0,0,1,0,3.49h2.26c.36-2.94.6-5.61.7-8a14.38,14.38,0,0,0-.48-5.33,4.16,4.16,0,0,0-2.91-2.31,16,16,0,0,0-4.79-.7,16.59,16.59,0,0,0-4.57.59c-1.36.39-2.12.91-2.26,1.56a.54.54,0,0,1-.05.21.49.49,0,0,0-.06.22,26.11,26.11,0,0,1,5.33.11A9.62,9.62,0,0,1,325.09,865.06Z"/><path class="cls-1" d="M401,907.57a3,3,0,0,1,.21-3.07,5.82,5.82,0,0,1,2.64-2.15,6.13,6.13,0,0,1,3.5-.38,3.88,3.88,0,0,1,2.8,2.15,58.38,58.38,0,0,1,2.53,5.33q1,2.53,2.2,5.65a3.45,3.45,0,0,1-.48,3.39,5.7,5.7,0,0,1-3,2,6.82,6.82,0,0,1-3.61.11,3.29,3.29,0,0,1-2.42-2l-.11-.11a57.61,57.61,0,0,1-12.1,2.53,24.23,24.23,0,0,1-8.24-.54,9.14,9.14,0,0,1-4.84-3,9.54,9.54,0,0,1-2-4.68,15.62,15.62,0,0,1,.32-5.71,27,27,0,0,1,2.21-6.08l-3.82.38-2.75.27c-.79.07-1.45-.41-2-1.45a9.84,9.84,0,0,1-1-3.5,8.28,8.28,0,0,1,.38-3.66,2.85,2.85,0,0,1,2.2-2c2-.35,4.77-.68,8.29-1s7.21-.5,11.08-.65,7.59-.2,11.14-.16,6.33.16,8.34.38a2.48,2.48,0,0,1,2,1.72,7.7,7.7,0,0,1,.48,3.28,10.25,10.25,0,0,1-.7,3.23c-.39,1-.88,1.45-1.45,1.45-.86,0-2,0-3.34.06s-2.9.09-4.63.16-3.55.16-5.49.27-3.91.19-5.91.27a12.73,12.73,0,0,0-2.16,5.16A5.25,5.25,0,0,0,392,909a5.19,5.19,0,0,0,3.55,1.89,16.4,16.4,0,0,0,6.62-.65Zm7-42.3a3.09,3.09,0,0,1,2.37,1.62,11.3,11.3,0,0,1,1.46,3.66,19.28,19.28,0,0,1,.43,4.57,23.54,23.54,0,0,1-.54,4.57,9.57,9.57,0,0,1-1.51,3.55,3,3,0,0,1-2.53,1.41q-6.67,0-12.91.26a122,122,0,0,0-12.7,1.24,2.52,2.52,0,0,1-2.42-1.24,11.18,11.18,0,0,1-1.83-3.71,22.57,22.57,0,0,1-.92-5,19.94,19.94,0,0,1,.22-5.12,10.35,10.35,0,0,1,1.61-4.09,4.32,4.32,0,0,1,3.23-1.93q3.22-.33,6.24-.49c2-.1,4.07-.14,6.19-.1s4.29.12,6.51.27S405.44,865.06,408,865.27Zm12.49,19.91a2.88,2.88,0,0,1-3.07-.7,6.31,6.31,0,0,1-1.67-3.12,7,7,0,0,1,.11-3.66,3,3,0,0,1,2.37-2.2q3.12-.75,5.86-1.35t5.33-1c.43-1.44.84-2.75,1.24-3.93s.77-2.28,1.13-3.28a3,3,0,0,1,2.2-1.94,7.33,7.33,0,0,1,3.39-.05,7.25,7.25,0,0,1,3,1.34,2.09,2.09,0,0,1,.92,2.26l-1.29,4.74q7.63,0,12.21,2A15,15,0,0,1,459,880a18,18,0,0,1,2.53,8.55,47.55,47.55,0,0,1-.7,10.5,85.19,85.19,0,0,1-2.91,11.57q-1.93,6-4.09,11.78a3,3,0,0,1-2,2.1,13.52,13.52,0,0,1-3.93.91,21,21,0,0,1-4.73-.1,19.46,19.46,0,0,1-4.42-1.08,7,7,0,0,1-2.85-1.83,1.92,1.92,0,0,1-.05-2.47q3.12-5.28,5.81-10.28a87.84,87.84,0,0,0,4.41-9.42,43.07,43.07,0,0,0,2.37-8,12.23,12.23,0,0,0-.22-6.13,6.52,6.52,0,0,0-3.39-3.82,14.54,14.54,0,0,0-7.15-1.08q-1.29,5.17-2.75,11t-2.85,11.41q-1.4,5.55-2.53,10.33c-.75,3.2-1.34,5.83-1.77,7.91-.22.79-1,1.29-2.42,1.51a12.83,12.83,0,0,1-4.47-.16,11,11,0,0,1-4.09-1.67,2.52,2.52,0,0,1-1.18-3q.75-2.81,2-6.84t2.63-8.72l2.91-9.74q1.5-5.06,3-9.79c-.86.22-1.77.47-2.74.76S421.44,884.82,420.44,885.18Z"/><path class="cls-1" d="M507.07,876.57a2.78,2.78,0,0,1,2.32,1.94,11.44,11.44,0,0,1,.91,4,12.13,12.13,0,0,1-.43,4c-.36,1.22-1,1.87-1.83,1.94-1.65.14-3.32.31-5,.48s-3.39.38-5.11.6c-.15,4.52.35,7.49,1.5,8.93s3.37,1.22,6.67-.65a2.89,2.89,0,0,1,3.29.11,6.08,6.08,0,0,1,2.1,3,8.35,8.35,0,0,1,.37,3.88,3.06,3.06,0,0,1-1.77,2.63q-7.11,3.22-11.57,3.71t-7-1.61c-1.72-1.4-2.91-3.62-3.55-6.67a57,57,0,0,1-1-11.57l-2.42.43c-.83.14-1.64.28-2.42.43s-1.53-.41-2.21-1.67a13.22,13.22,0,0,1-1.4-4.36,13.82,13.82,0,0,1,.05-4.68,3,3,0,0,1,2.16-2.64c1-.21,2.08-.44,3.22-.7s2.34-.44,3.56-.59l.64-8.28a3.33,3.33,0,0,1,2-2.91,7.93,7.93,0,0,1,4.09-.86,7,7,0,0,1,3.93,1.4,3.63,3.63,0,0,1,1.4,3.66l-.65,6A79.59,79.59,0,0,1,507.07,876.57Zm10.44,4.52a2.37,2.37,0,0,1-2.85-.8,9.59,9.59,0,0,1-2-3.5,8.47,8.47,0,0,1-.38-4.14,3.19,3.19,0,0,1,2.37-2.75q16.14-5.49,26.58-6.13t16.3,2.15a15,15,0,0,1,8,8.34,28.05,28.05,0,0,1,1.5,12.48,64.36,64.36,0,0,1-3.06,14.53,126.77,126.77,0,0,1-5.71,14.48q-.65,1.5-3.12,1.83a22.09,22.09,0,0,1-5.7-.11,41.75,41.75,0,0,1-6.73-1.51,33.8,33.8,0,0,1-6.19-2.53,14.56,14.56,0,0,1-4.09-3.06,2.42,2.42,0,0,1-.43-3.12q4.2-6.57,7.64-12.59a54.87,54.87,0,0,0,4.85-10.55q1.4-4.53-.06-7c-1-1.65-3.39-2.29-7.26-1.94l-2.64,7.43c-1,2.73-1.93,5.56-2.9,8.5s-1.87,5.87-2.69,8.77-1.49,5.65-2,8.24a2.59,2.59,0,0,1-1.4,1.83,7.13,7.13,0,0,1-2.75.8,11.14,11.14,0,0,1-3.28-.16,9.24,9.24,0,0,1-3-1.07,5.48,5.48,0,0,1-2-1.94,3.28,3.28,0,0,1-.16-2.8q2.16-6.45,4.85-13.18t5.48-13.19c-1.07.36-2.2.76-3.38,1.19S518.8,880.52,517.51,881.09Z"/><path class="cls-1" d="M653.44,850.64a3.39,3.39,0,0,1,3.49-.6,8.22,8.22,0,0,1,3.23,2.16,7.6,7.6,0,0,1,1.83,3.28,2.49,2.49,0,0,1-.7,2.8l-4.19,3.66a43.34,43.34,0,0,1,8.71,3.49c2.23,1.26,3.61,2.69,4.15,4.31s.17,3.41-1.08,5.38-3.61,4.18-7,6.62a31.61,31.61,0,0,1,5.33,1.4,10.85,10.85,0,0,1,3.6,2,12,12,0,0,1,3.5,7,43.76,43.76,0,0,1,.49,10.17c.71,0,1.32,0,1.83.05s.93,0,1.29,0a2.38,2.38,0,0,1,1.83,1.29,5.1,5.1,0,0,1,.53,2.26,4.28,4.28,0,0,1-.59,2.21,1.84,1.84,0,0,1-1.67,1q-1,0-2.79.06c-1.22,0-2.69.09-4.42.16s-3.62.16-5.7.27-4.27.2-6.56.27c1.57,1.29,3.19,2.63,4.84,4s3.21,2.76,4.68,4.09,2.76,2.55,3.87,3.66a34.33,34.33,0,0,1,2.53,2.74,2.7,2.7,0,0,1,.49,2.69,6.1,6.1,0,0,1-1.62,2.59,5.74,5.74,0,0,1-2.53,1.45,2.27,2.27,0,0,1-2.36-.59c-1-1-2.52-2.42-4.52-4.25l-6.35-5.81q-3.35-3.07-6.57-5.81t-5.16-4.26a1.08,1.08,0,0,0-.38.06,1.09,1.09,0,0,1-.38.05q-1.18,2.91-2.26,5.6t-2,5.06c-.61,1.57-1.11,3-1.51,4.19s-.69,2.19-.91,2.91-1,1.25-2.21,1.4a10.32,10.32,0,0,1-3.87-.33,7.83,7.83,0,0,1-3.34-1.77,2.39,2.39,0,0,1-.7-2.85l6.14-13.67q-5.6.32-9.9.65t-6,.53a1.69,1.69,0,0,1-1.88-1.13,7.09,7.09,0,0,1-.81-2.85l-5.27,2.15q0,4.2-.06,7.64c0,2.3-.12,4.2-.27,5.71a3.6,3.6,0,0,1-2.26,3.17,10,10,0,0,1-4.35.87,8.89,8.89,0,0,1-4.1-1c-1.18-.64-1.63-1.47-1.34-2.47a22.22,22.22,0,0,0,.65-4q.21-2.48.43-5.82c-1.58.58-3.05,1.08-4.42,1.51l-3.44,1.08a3,3,0,0,1-3.12-.65,6.15,6.15,0,0,1-1.62-2.85,6.75,6.75,0,0,1,0-3.34,2.72,2.72,0,0,1,1.83-2.1l11.09-3.44V893.68c-2.08.37-4.22.74-6.4,1.14s-4.51.84-7,1.34c-.79.15-1.56-.27-2.31-1.24a13.93,13.93,0,0,1-2-3.87,31.31,31.31,0,0,1-1.35-5.28,26.5,26.5,0,0,1-.37-5.48,12.67,12.67,0,0,1,.91-4.52,3.7,3.7,0,0,1,2.42-2.32q3.76-.86,7.59-1.5t7.8-1.19q-.11-2.58-.21-4.68c-.07-1.4-.15-2.6-.22-3.6a3,3,0,0,1,1.19-2.64,6,6,0,0,1,3-1.24,5.82,5.82,0,0,1,3.23.49,2.88,2.88,0,0,1,1.72,2.42c.14,1.22.29,2.56.43,4s.29,3,.43,4.68a97.71,97.71,0,0,1,10.33.33,3.15,3.15,0,0,1,2.48,1.66,12.18,12.18,0,0,1,1.45,3.88,28.48,28.48,0,0,1,.22,9.85,11.61,11.61,0,0,1-1.24,3.76,2.75,2.75,0,0,1-2.05,1.62l-4.95.43-4.84.43c.14,1.5.23,3,.27,4.46s.09,2.93.16,4.36c.79-.35,1.56-.66,2.32-.91a15.2,15.2,0,0,0,2-.81,1.73,1.73,0,0,1,1.56.11,5.19,5.19,0,0,1,1.45,1.18,6.81,6.81,0,0,1,1.08,1.83,8.06,8.06,0,0,1,.53,2.05l3.56-.33a84.87,84.87,0,0,1,.53-10,20.89,20.89,0,0,1,2.59-8.08,8.25,8.25,0,0,1,3.87-2.9,10.73,10.73,0,0,1-1.56-1.45,6.07,6.07,0,0,1-1.08-1.78,4.23,4.23,0,0,1-.27-2,3.9,3.9,0,0,1,.87-2,138.67,138.67,0,0,1,12.53-13.78Q647,855.7,653.44,850.64Zm-15.5,52.62q2-4.51,3.93-8.5c1.25-2.65,2.38-5,3.39-7a39.23,39.23,0,0,0-7.43,1.18c-2.08.58-3.26,1.36-3.55,2.37a35.73,35.73,0,0,0-1.13,5.65,42.84,42.84,0,0,0-.27,6.51Zm16.79-27.55c2-1,3-1.93,3.07-2.8a2.67,2.67,0,0,0-1.24-2.26,11.4,11.4,0,0,0-3.28-1.61c-1.33-.43-2.32-.72-3-.86q-3.35,3.23-6.46,6.51t-6.24,6.62a73.66,73.66,0,0,1,7.85-.7,69.23,69.23,0,0,1,8.29.16,5.55,5.55,0,0,1-.65-2.91A2.61,2.61,0,0,1,654.73,875.71Zm-6.57,27.12c3.45-.14,6.77-.27,10-.37s6.15-.16,8.88-.16a37,37,0,0,0-.43-8.24q-.65-3.49-2.48-4.46a15.77,15.77,0,0,0-4-1.24,45.72,45.72,0,0,0-5.27-.7c-.65,1.22-1.56,3.19-2.75,5.92S649.6,899.39,648.16,902.83Z"/><path class="cls-1" d="M713.7,918.22a2,2,0,0,1-2-1.07,8.53,8.53,0,0,1-1.13-6.35,2.34,2.34,0,0,1,1.88-1.94c1.22-.29,2.87-.59,5-.92s4.49-.66,7.21-1a74,74,0,0,1,1.19-8.93,37.13,37.13,0,0,1,2.26-7.64q1.07-2.48,5.54-3.71a48.16,48.16,0,0,1,10.28-1.56v-7.32c-2.3.14-4.49.27-6.57.37s-3.84.24-5.27.38q-2.47,4.31-5.06,9.2t-6,11.36a4,4,0,0,1-3.17,2.09,12.43,12.43,0,0,1-5.11-.32,22.69,22.69,0,0,1-5.6-2.26,21.94,21.94,0,0,1-4.84-3.6,11.1,11.1,0,0,1-2.8-4.36,5.5,5.5,0,0,1,.65-4.68q3.66-6.36,6.78-11.3t6.08-9.21q3-4.24,6.08-8.34t6.89-8.6a5.82,5.82,0,0,1,3.76-2.16,11.09,11.09,0,0,1,4.68.38,16.84,16.84,0,0,1,4.74,2.26,17.32,17.32,0,0,1,3.82,3.44,10.05,10.05,0,0,1,2,3.88,4.16,4.16,0,0,1-.7,3.6c-1.29,1.8-2.47,3.48-3.55,5.06s-2.12,3.09-3.12,4.52l7.26-.21c2.62-.08,5.15-.11,7.59-.11s4.68,0,6.73.05a46.15,46.15,0,0,1,4.68.27,2.28,2.28,0,0,1,1.72,1.45,5.91,5.91,0,0,1,.48,2.64,5.27,5.27,0,0,1-.75,2.58,2.12,2.12,0,0,1-1.88,1.19H759q-2.75,0-6.08.1c.07,1.08.14,2.25.21,3.5s.15,2.6.22,4c1.86.07,3.66.18,5.38.32s3.3.29,4.74.43a1.76,1.76,0,0,1,1.56,1.45,8.29,8.29,0,0,1-.6,5.71c-.43.82-.89,1.2-1.39,1.13q-2.06-.21-4.47-.33c-1.62-.07-3.28-.1-5-.1.08,1.65.13,3.33.17,5s0,3.45,0,5.17q6.24-.54,11.14-.86a69.19,69.19,0,0,1,7.15-.21,2.81,2.81,0,0,1,2.43,1.72,7.78,7.78,0,0,1,.8,3.55,8.42,8.42,0,0,1-.7,3.5c-.46,1-1.09,1.56-1.88,1.56-1.87-.07-4.45-.06-7.75.05s-7,.31-11.08.59q.1,3.45,0,6.46c0,2,0,3.73,0,5.17a3.37,3.37,0,0,1-2.05,3.06,9.69,9.69,0,0,1-4.19.92,9.19,9.19,0,0,1-4-.86c-1.18-.58-1.71-1.37-1.56-2.37.14-1.29.28-2.92.43-4.9s.29-4.18.43-6.62q-8.07.77-15.77,1.67T713.7,918.22Zm24.43-21.31c-.43,1.37-.79,2.71-1.07,4a36.61,36.61,0,0,0-.65,4.57c1.15-.14,2.28-.27,3.39-.37s2.28-.24,3.5-.38l.32-10.55a17.52,17.52,0,0,0-3.71,1.08A3,3,0,0,0,738.13,896.91Z"/><path class="cls-1" d="M797.43,884.22c1.15-1.37,2.62-3.05,4.42-5.06l5.75-6.46,6.25-7c2.11-2.36,4.1-4.52,6-6.45a6.19,6.19,0,0,1,4.3-2,11.66,11.66,0,0,1,5.28,1,22.94,22.94,0,0,1,5.22,3.13,18,18,0,0,1,4.09,4.41,11.23,11.23,0,0,1,1.83,4.89,6,6,0,0,1-1.35,4.52l-5,6.14q-2.68,3.33-5.38,6.78c-.07,1.72-.13,4-.16,6.83s-.06,5.73-.06,8.67,0,5.66.06,8.18a35.77,35.77,0,0,0,.37,5.48c.07.65-.32,1.17-1.18,1.56a8.08,8.08,0,0,1-2.91.7,7.48,7.48,0,0,1-3-.37,1.81,1.81,0,0,1-1.4-1.78c0-.86,0-2,.06-3.44s.09-3,.16-4.79.14-3.62.21-5.6.18-3.92.33-5.86l-3.56,4.84a4.32,4.32,0,0,1-3.87,1.78,14.5,14.5,0,0,1-5.44-1.3,25.74,25.74,0,0,1-5.7-3.49,22.81,22.81,0,0,1-4.63-4.84,12.89,12.89,0,0,1-2.2-5.33A6.24,6.24,0,0,1,797.43,884.22Zm55.75-24a2.52,2.52,0,0,1,2.53-.75,7.29,7.29,0,0,1,2.91,1.35,6.61,6.61,0,0,1,2,2.36,2.08,2.08,0,0,1-.11,2.32q-1.51,1.83-3.28,4.3T853.61,875q-1.83,2.68-3.66,5.33t-3.33,4.89c-.36.51-1,.67-2,.49a8.8,8.8,0,0,1-3-1.19,9.51,9.51,0,0,1-2.53-2.15,1.88,1.88,0,0,1-.38-2.31q1.19-2,3.07-4.85t3.93-5.59c1.36-1.87,2.71-3.64,4-5.33A49.83,49.83,0,0,1,853.18,860.21Zm-8,38.1a2.11,2.11,0,0,1-2.32-.7,7.32,7.32,0,0,1-1.72-2.79,6.73,6.73,0,0,1-.32-3.34,2.63,2.63,0,0,1,1.88-2.21q13-4.51,21.58-5.27t13.4,1.29a11.65,11.65,0,0,1,6.62,6.4,21.59,21.59,0,0,1,1.34,9.91,47,47,0,0,1-2.63,11.83,112.44,112.44,0,0,1-5.12,12.22c-.43.86-1.4,1.24-2.9,1.13a12.5,12.5,0,0,1-4.52-1.24,12.33,12.33,0,0,1-3.72-2.63c-1-1-1.16-2-.59-3,1.51-2.52,2.93-5,4.25-7.38a49.24,49.24,0,0,0,3.18-6.83,22.82,22.82,0,0,0,1.4-5.87,6.7,6.7,0,0,0-.92-4.35,6,6,0,0,0-3.87-2.37,20.88,20.88,0,0,0-7.37,0l-2.59,6.13c-.93,2.23-1.86,4.52-2.79,6.89s-1.83,4.77-2.69,7.21-1.62,4.84-2.26,7.21a2.9,2.9,0,0,1-2.48,1.94,9.18,9.18,0,0,1-4.25-.16,8.34,8.34,0,0,1-3.66-2,2.85,2.85,0,0,1-.59-3.45q2.15-5.49,4.52-10.49T851,896.27c-.93.29-1.88.61-2.85,1S846.22,898,845.22,898.31Zm48-16.25a2.13,2.13,0,0,1-.27,2.42,8.15,8.15,0,0,1-2.48,2.32A8.87,8.87,0,0,1,887.3,888a2,2,0,0,1-2.26-.81c-.86-1.29-2.16-3.07-3.88-5.33s-3.6-4.59-5.65-7-4.07-4.7-6.08-6.89a49.75,49.75,0,0,0-5.16-5,1.88,1.88,0,0,1-.38-2.2,7.6,7.6,0,0,1,1.67-2.75,7.06,7.06,0,0,1,2.74-1.88,2.71,2.71,0,0,1,2.85.48c1.29,1.08,2.93,2.62,4.9,4.63s4,4.24,6.13,6.67,4.17,4.9,6.14,7.38S891.92,880.05,893.22,882.06Z"/><path class="cls-1" d="M166.54,453.63c.79-.08,1.46.39,2,1.39a8.63,8.63,0,0,1,1,3.34,9.08,9.08,0,0,1-.32,3.44,2.29,2.29,0,0,1-1.88,1.83c-1.51.22-3.91.43-7.21.65s-7.05.41-11.25.59-8.63.34-13.29.48-9.11.24-13.35.27-8,0-11.46,0-5.93-.12-7.58-.27a2.66,2.66,0,0,1-2.43-1.88,9.13,9.13,0,0,1-.59-3.82,10.25,10.25,0,0,1,.86-3.71c.5-1.11,1.19-1.67,2-1.67,1.5.07,3.66.13,6.45.16s6,.06,9.48.06q.85-12.81,1-26.1t-.64-25a3.32,3.32,0,0,1,1.4-2.86,11.56,11.56,0,0,1,3.82-2,22.16,22.16,0,0,1,5-1,20.55,20.55,0,0,1,5.17.22,11.59,11.59,0,0,1,4.25,1.56,4.39,4.39,0,0,1,2.1,3.07q.86,4.85,1.5,10.38t1,11.46c2.66-.35,5.37-.61,8.13-.75s5.4-.22,7.91-.22a2.35,2.35,0,0,1,2.15,1.4,7.55,7.55,0,0,1,.86,3.13,7.68,7.68,0,0,1-.43,3.17c-.36,1-.9,1.49-1.61,1.56-2.59.15-5.29.36-8.13.65s-5.69.64-8.55,1.07q.1,5.38-.06,10.44c-.11,3.38-.27,6.6-.48,9.69,5.16-.15,9.85-.27,14-.38S164.61,453.77,166.54,453.63Z"/><path class="cls-1" d="M271.15,404.33a4.73,4.73,0,0,1,3.07,2.26,12.82,12.82,0,0,1,1.61,4.42,22.49,22.49,0,0,1,.33,5.43,22,22,0,0,1-.92,5.27,12.21,12.21,0,0,1-2,4,3.3,3.3,0,0,1-2.85,1.45q-5.49-.21-11.79-.32t-13.07,0q0,4.19.1,9.41c.08,3.48.18,7,.33,10.55s.34,7,.59,10.44.56,6.44.91,9.09c.15,1.15-.48,2.06-1.88,2.75a10.7,10.7,0,0,1-4.73,1A11.23,11.23,0,0,1,236,469a3.85,3.85,0,0,1-2.37-3.55q-.1-4.31-.05-9.25c0-3.3.11-6.64.21-10s.27-6.71.49-10,.43-6.35.64-9.15l-10.76.43c-3.51.15-6.89.36-10.12.65a3.24,3.24,0,0,1-2.85-1.62,13.89,13.89,0,0,1-2-4.46,25.81,25.81,0,0,1-.86-6,25.5,25.5,0,0,1,.49-6.08,13.31,13.31,0,0,1,1.93-4.84,5.05,5.05,0,0,1,3.61-2.31q5.91-.65,13.4-.86t15.22-.06q7.76.16,15.13.81T271.15,404.33Zm-18.08,42a3.06,3.06,0,0,1-1.94-2.48,6.8,6.8,0,0,1,.38-3.66,7.15,7.15,0,0,1,2.26-3.07,3.53,3.53,0,0,1,3.5-.59c1,.36,2.37.88,4.09,1.56s3.53,1.44,5.43,2.26,3.73,1.65,5.49,2.48,3.14,1.52,4.14,2.1a3.24,3.24,0,0,1,1.78,2.9,7.27,7.27,0,0,1-.91,3.72,7.49,7.49,0,0,1-2.59,2.79,3.15,3.15,0,0,1-3.23.27c-1-.5-2.29-1.13-3.87-1.88s-3.23-1.52-5-2.31-3.44-1.57-5.17-2.32S254.29,446.74,253.07,446.31Z"/><path class="cls-1" d="M319.37,422.63a13.16,13.16,0,0,1,9.3,3.82,12.83,12.83,0,0,1,2.8,4.2,13.34,13.34,0,0,1,0,10.28,13.8,13.8,0,0,1-2.8,4.19,12.56,12.56,0,0,1-4.19,2.85,13.34,13.34,0,0,1-10.28,0,13.52,13.52,0,0,1-7.05-7,13.46,13.46,0,0,1,0-10.28,12.5,12.5,0,0,1,2.85-4.2,13.91,13.91,0,0,1,4.2-2.8A12.93,12.93,0,0,1,319.37,422.63Zm5.38-28.09a12.09,12.09,0,0,1,4.84,1,11.91,11.91,0,0,1,3.93,2.69,13,13,0,0,1,2.63,4,12.09,12.09,0,0,1,1,4.84,11.69,11.69,0,0,1-1,4.79,13.09,13.09,0,0,1-2.63,3.93,11.91,11.91,0,0,1-3.93,2.69,12.59,12.59,0,0,1-9.69,0,11.87,11.87,0,0,1-3.92-2.69,12.94,12.94,0,0,1-2.64-3.93,11.69,11.69,0,0,1-1-4.79,12.09,12.09,0,0,1,1-4.84,12.81,12.81,0,0,1,2.64-4,11.87,11.87,0,0,1,3.92-2.69A12.11,12.11,0,0,1,324.75,394.54Zm3.66,58.55a7.43,7.43,0,0,1,5.48,2.26,7.59,7.59,0,0,1,0,10.81,7.55,7.55,0,0,1-5.48,2.21,7.46,7.46,0,0,1-5.39-2.21,7.67,7.67,0,0,1,5.39-13.07Zm48.21,2.58c.5.07.88.45,1.13,1.13a5.36,5.36,0,0,1,.32,2.15,5.86,5.86,0,0,1-.48,2.1c-.29.65-.65,1-1.08,1h-9.09c-1.9,0-3.84,0-5.81.05s-3.75.09-5.33.16c.14,1,.23,1.94.27,2.8a10,10,0,0,0,.27,2.15,2.17,2.17,0,0,1-1.51,2.16,10.7,10.7,0,0,1-3.66.91,11.14,11.14,0,0,1-3.82-.32c-1.18-.32-1.85-.88-2-1.67s-.31-1.83-.48-3.34-.33-3.22-.43-5.16-.17-4-.17-6.24a54.06,54.06,0,0,1,.38-6.46,43.24,43.24,0,0,1,1.08-5.81,12.47,12.47,0,0,1,2-4.42,6.89,6.89,0,0,1,3.33-2,29.65,29.65,0,0,1,5.82-1.29c2.22-.29,4.64-.48,7.26-.59s5.15-.09,7.59,0a51.55,51.55,0,0,1,6.72.81,21.15,21.15,0,0,1,4.9,1.45,6.07,6.07,0,0,0-.11-4.14,2.63,2.63,0,0,0-2.26-1.56q-2.79-.22-6.83-.22t-8.61.16q-4.57.17-9.36.6c-3.2.28-6.19.68-9,1.18,0,.93,0,1.81.11,2.64s.14,1.59.21,2.31-.45,1.56-1.56,2.1a9.11,9.11,0,0,1-3.76.86,10.4,10.4,0,0,1-3.88-.59A2.32,2.32,0,0,1,337,436.3c0-1.51,0-2.8-.06-3.88a25.78,25.78,0,0,1,.06-3.07c.07-1,.14-2,.21-3s.22-2.19.43-3.55a1.71,1.71,0,0,1,.92-1.24,6.51,6.51,0,0,1,2-.76,9.87,9.87,0,0,1,2.53-.21,10.33,10.33,0,0,1,2.42.37q-.11-3.87-.06-6.67a38.72,38.72,0,0,1,.38-4.95,25.27,25.27,0,0,1,.86-3.87,28.62,28.62,0,0,1,1.4-3.55,6.36,6.36,0,0,1,3.17-2.8,24.41,24.41,0,0,1,5.82-1.88,38.59,38.59,0,0,1,7.26-.76,47.73,47.73,0,0,1,7.53.49,27.73,27.73,0,0,1,6.62,1.77,10.38,10.38,0,0,1,4.47,3.28,16.36,16.36,0,0,1,2.47,7.21,115.58,115.58,0,0,1,.87,12,19.66,19.66,0,0,1,4.73,1.29,3.68,3.68,0,0,1,1.78,2.59,17.39,17.39,0,0,1,.48,4.19,40.44,40.44,0,0,1-.21,4.25,16.62,16.62,0,0,1-.43,2.64,3.06,3.06,0,0,1-2.37,1.94,9.22,9.22,0,0,1-3.66.11,21.55,21.55,0,0,1,2,6.77,60.16,60.16,0,0,1,.59,8.51,67.46,67.46,0,0,1-.54,8.61,42.46,42.46,0,0,1-1.4,7,2.45,2.45,0,0,1-2,1.62,12.55,12.55,0,0,1-3.49.37,9.1,9.1,0,0,1-3.18-.59c-.9-.36-1.27-.79-1.13-1.29A32.21,32.21,0,0,0,379,463a62.94,62.94,0,0,0,.75-7.48,66.47,66.47,0,0,0-.05-7.1,24.53,24.53,0,0,0-.75-5.12c-.15-.57-.79-1.06-1.94-1.45a19.68,19.68,0,0,0-4-.86,32.84,32.84,0,0,0-5.05-.16,49.35,49.35,0,0,0-5.06.43,19.21,19.21,0,0,0-3.93.91q-1.62.6-1.83,1.35a4,4,0,0,0-.16.59,2.74,2.74,0,0,0-.06.59c1.58-.07,3.34-.11,5.28-.11s3.82,0,5.65.11l5.06.22a32.89,32.89,0,0,1,3.6.32,1.42,1.42,0,0,1,1.19,1.13,6.14,6.14,0,0,1,.26,2.15,5.62,5.62,0,0,1-.48,2.1c-.29.65-.65,1-1.08,1h-9.09c-1.9,0-3.84,0-5.81.05s-3.75.09-5.33.16a14.35,14.35,0,0,0-.11,1.73v1.72c1.58-.07,3.38-.13,5.38-.16s4,0,6,.05l5.43.22A34.13,34.13,0,0,1,376.62,455.67ZM362,412.62a8.44,8.44,0,0,0-1.34-.32l-1.56-.22c0,1.37.05,2.71.16,4s.27,2.82.48,4.46l3.77-.21a25.06,25.06,0,0,0-.27-4.9C363,413.86,362.56,412.91,362,412.62Zm7.11-4.73a4.92,4.92,0,0,1,1.45,2,15,15,0,0,1,.91,3.17,30.74,30.74,0,0,1,.43,7.16h2.26c.36-2.94.6-5.61.7-8a14.35,14.35,0,0,0-.48-5.32,4.2,4.2,0,0,0-2.91-2.32,17.2,17.2,0,0,0-9.36-.1c-1.36.39-2.12.91-2.26,1.56a.54.54,0,0,1-.05.21.46.46,0,0,0-.06.22,26.13,26.13,0,0,1,5.33.1A9.76,9.76,0,0,1,369.09,407.89Z"/><path class="cls-1" d="M445,450.4a3,3,0,0,1,.21-3.07,5.76,5.76,0,0,1,2.64-2.15,6.05,6.05,0,0,1,3.5-.38,3.83,3.83,0,0,1,2.8,2.15,57.15,57.15,0,0,1,2.53,5.33q1,2.54,2.2,5.65a3.45,3.45,0,0,1-.48,3.39,5.7,5.7,0,0,1-3,2,6.93,6.93,0,0,1-3.61.11,3.29,3.29,0,0,1-2.42-2.05l-.11-.1a58.92,58.92,0,0,1-12.1,2.53,24.23,24.23,0,0,1-8.24-.54,9.14,9.14,0,0,1-4.84-3,9.62,9.62,0,0,1-2-4.68,15.62,15.62,0,0,1,.32-5.71,27,27,0,0,1,2.21-6.08l-3.82.38-2.75.27c-.79.07-1.45-.42-2-1.46a9.78,9.78,0,0,1-1-3.5,8.25,8.25,0,0,1,.38-3.65,2.85,2.85,0,0,1,2.2-2.05q3-.54,8.29-1c3.51-.28,7.21-.5,11.08-.64s7.59-.2,11.14-.16,6.33.16,8.34.37a2.51,2.51,0,0,1,2,1.72,7.74,7.74,0,0,1,.48,3.29,10.25,10.25,0,0,1-.7,3.23c-.39,1-.88,1.45-1.45,1.45-.86,0-2,0-3.34.05s-2.9.09-4.63.16-3.55.16-5.49.27-3.91.2-5.91.27a12.82,12.82,0,0,0-2.16,5.17,5.25,5.25,0,0,0,.7,3.82,5.14,5.14,0,0,0,3.55,1.88,16.36,16.36,0,0,0,6.62-.64Zm7-42.3a3.07,3.07,0,0,1,2.37,1.62,11.33,11.33,0,0,1,1.46,3.65,19.37,19.37,0,0,1,.43,4.58,23.64,23.64,0,0,1-.54,4.57,9.57,9.57,0,0,1-1.51,3.55,3,3,0,0,1-2.53,1.4q-6.67,0-12.91.27A119.32,119.32,0,0,0,426,429a2.54,2.54,0,0,1-2.42-1.24,11.28,11.28,0,0,1-1.83-3.71,22.66,22.66,0,0,1-.92-5,19.86,19.86,0,0,1,.22-5.11,10.35,10.35,0,0,1,1.61-4.09,4.29,4.29,0,0,1,3.23-1.93q3.22-.33,6.24-.49c2-.11,4.07-.14,6.19-.11s4.29.13,6.51.27S449.44,407.89,452,408.1ZM464.44,428a2.88,2.88,0,0,1-3.07-.7,6.35,6.35,0,0,1-1.67-3.12,7,7,0,0,1,.11-3.66,3.06,3.06,0,0,1,2.37-2.21q3.12-.75,5.86-1.34t5.33-1c.43-1.44.84-2.75,1.24-3.93s.77-2.28,1.13-3.28a3,3,0,0,1,2.2-1.94,7.19,7.19,0,0,1,3.39-.06,7.39,7.39,0,0,1,3,1.35,2.09,2.09,0,0,1,.92,2.26l-1.29,4.74q7.63,0,12.21,2a14.89,14.89,0,0,1,6.84,5.71,17.91,17.91,0,0,1,2.53,8.55,47.47,47.47,0,0,1-.7,10.49,84.82,84.82,0,0,1-2.91,11.57q-1.93,6-4.09,11.79a3,3,0,0,1-2,2.1,13.85,13.85,0,0,1-3.93.91,21,21,0,0,1-4.73-.11,19,19,0,0,1-4.42-1.07,7,7,0,0,1-2.85-1.83,1.94,1.94,0,0,1-.05-2.48q3.12-5.26,5.81-10.28a86.85,86.85,0,0,0,4.41-9.41,43.3,43.3,0,0,0,2.37-8,12.23,12.23,0,0,0-.22-6.13,6.52,6.52,0,0,0-3.39-3.82,14.43,14.43,0,0,0-7.15-1.08q-1.29,5.16-2.75,11t-2.85,11.41q-1.4,5.53-2.53,10.33t-1.77,7.91c-.22.79-1,1.29-2.42,1.51a12.61,12.61,0,0,1-4.47-.17,11,11,0,0,1-4.09-1.66,2.53,2.53,0,0,1-1.18-3q.75-2.79,2-6.83t2.63-8.72q1.39-4.68,2.91-9.74t3-9.79c-.86.21-1.77.47-2.74.75S465.44,427.65,464.44,428Z"/><path class="cls-1" d="M551.07,419.4a2.78,2.78,0,0,1,2.32,1.94,11.38,11.38,0,0,1,.91,4,12.16,12.16,0,0,1-.43,4c-.36,1.22-1,1.87-1.83,1.94-1.65.14-3.32.3-5,.48s-3.39.38-5.11.59q-.23,6.78,1.5,8.93t6.67-.64a2.88,2.88,0,0,1,3.29.11,6,6,0,0,1,2.1,3,8.31,8.31,0,0,1,.37,3.87,3.06,3.06,0,0,1-1.77,2.64Q547,453.52,542.52,454c-3,.32-5.33-.21-7-1.61s-2.91-3.63-3.55-6.68a56.88,56.88,0,0,1-1-11.57l-2.42.43-2.42.44c-.8.14-1.53-.42-2.21-1.67a13.3,13.3,0,0,1-1.4-4.36,13.82,13.82,0,0,1,0-4.68,3,3,0,0,1,2.16-2.64l3.22-.7c1.15-.25,2.34-.45,3.56-.59l.64-8.29a3.32,3.32,0,0,1,2-2.9,7.93,7.93,0,0,1,4.09-.86,6.9,6.9,0,0,1,3.93,1.4,3.63,3.63,0,0,1,1.4,3.65l-.65,6A79.59,79.59,0,0,1,551.07,419.4Zm10.44,4.52a2.38,2.38,0,0,1-2.85-.81,9.55,9.55,0,0,1-2-3.49,8.52,8.52,0,0,1-.38-4.15,3.18,3.18,0,0,1,2.37-2.74q16.14-5.49,26.58-6.14t16.3,2.16a14.94,14.94,0,0,1,8,8.34,28,28,0,0,1,1.5,12.48,64.36,64.36,0,0,1-3.06,14.53,127.5,127.5,0,0,1-5.71,14.48c-.43,1-1.47,1.61-3.12,1.82a22.05,22.05,0,0,1-5.7-.1,41.75,41.75,0,0,1-6.73-1.51,34.52,34.52,0,0,1-6.19-2.53,14.57,14.57,0,0,1-4.09-3.07,2.42,2.42,0,0,1-.43-3.12q4.2-6.56,7.64-12.59a54.6,54.6,0,0,0,4.85-10.55q1.4-4.51-.06-7T581.1,418l-2.64,7.43c-1,2.72-1.93,5.56-2.9,8.5s-1.87,5.86-2.69,8.77-1.49,5.65-2,8.23a2.59,2.59,0,0,1-1.4,1.83,7.32,7.32,0,0,1-2.75.81,11.14,11.14,0,0,1-3.28-.16,9.24,9.24,0,0,1-3-1.08,5.38,5.38,0,0,1-2-1.93,3.29,3.29,0,0,1-.16-2.8q2.16-6.47,4.85-13.19t5.48-13.18c-1.07.36-2.2.75-3.38,1.18S562.8,423.35,561.51,423.92Z"/><path class="cls-1" d="M697.44,393.46a3.39,3.39,0,0,1,3.49-.59,8.3,8.3,0,0,1,3.23,2.15,7.63,7.63,0,0,1,1.83,3.29,2.47,2.47,0,0,1-.7,2.79l-4.19,3.66a43.9,43.9,0,0,1,8.71,3.5c2.23,1.26,3.61,2.69,4.15,4.31s.17,3.41-1.08,5.38-3.61,4.18-7,6.62a30.68,30.68,0,0,1,5.33,1.4,10.85,10.85,0,0,1,3.6,2,12,12,0,0,1,3.5,6.94,43.82,43.82,0,0,1,.49,10.17q1.07,0,1.83.06c.5,0,.93.05,1.29.05a2.38,2.38,0,0,1,1.83,1.29,5.1,5.1,0,0,1,.53,2.26,4.28,4.28,0,0,1-.59,2.21,1.84,1.84,0,0,1-1.67,1c-.64,0-1.57,0-2.79.05l-4.42.16-5.7.27q-3.12.17-6.56.27c1.57,1.29,3.19,2.64,4.84,4s3.21,2.76,4.68,4.09,2.76,2.55,3.87,3.66a34.33,34.33,0,0,1,2.53,2.74,2.7,2.7,0,0,1,.49,2.69,6.1,6.1,0,0,1-1.62,2.59,5.83,5.83,0,0,1-2.53,1.45,2.29,2.29,0,0,1-2.36-.59c-1-1-2.52-2.42-4.52-4.25s-4.13-3.77-6.35-5.82-4.42-4-6.57-5.81-3.87-3.24-5.16-4.25a1.08,1.08,0,0,0-.38.06,1.4,1.4,0,0,1-.38.05c-.79,1.94-1.54,3.8-2.26,5.6s-1.38,3.48-2,5.05-1.11,3-1.51,4.2-.69,2.19-.91,2.91-1,1.25-2.21,1.4a10.32,10.32,0,0,1-3.87-.33,7.94,7.94,0,0,1-3.34-1.77,2.41,2.41,0,0,1-.7-2.86L678.39,454c-3.73.21-7,.43-9.9.64s-4.88.4-6,.54a1.69,1.69,0,0,1-1.88-1.13,7.18,7.18,0,0,1-.81-2.85l-5.27,2.15q0,4.2-.06,7.64c0,2.3-.12,4.2-.27,5.71a3.61,3.61,0,0,1-2.26,3.17,9.87,9.87,0,0,1-4.35.86,9,9,0,0,1-4.1-1c-1.18-.65-1.63-1.47-1.34-2.48a22.07,22.07,0,0,0,.65-4c.14-1.65.28-3.58.43-5.81-1.58.58-3.05,1.08-4.42,1.51L635.34,460a3,3,0,0,1-3.12-.64,6.15,6.15,0,0,1-1.62-2.85,6.75,6.75,0,0,1,0-3.34,2.72,2.72,0,0,1,1.83-2.1l11.09-3.44V436.51l-6.4,1.13q-3.29.6-7,1.35a2.45,2.45,0,0,1-2.31-1.24,13.93,13.93,0,0,1-2-3.87,31.81,31.81,0,0,1-1.35-5.28,26.64,26.64,0,0,1-.37-5.49,12.77,12.77,0,0,1,.91-4.52,3.7,3.7,0,0,1,2.42-2.31c2.51-.57,5-1.08,7.59-1.51s5.15-.82,7.8-1.18q-.11-2.58-.21-4.68c-.07-1.4-.15-2.6-.22-3.61a2.94,2.94,0,0,1,1.19-2.63,5.82,5.82,0,0,1,3-1.24,5.9,5.9,0,0,1,3.23.48,2.9,2.9,0,0,1,1.72,2.42c.14,1.22.29,2.57.43,4s.29,3,.43,4.68a100.5,100.5,0,0,1,10.33.32,3.17,3.17,0,0,1,2.48,1.67,12,12,0,0,1,1.45,3.88,27.38,27.38,0,0,1,.54,4.95,27,27,0,0,1-.32,4.89,11.59,11.59,0,0,1-1.24,3.77,2.74,2.74,0,0,1-2.05,1.61l-4.95.43-4.84.44c.14,1.5.23,3,.27,4.46s.09,2.93.16,4.36a22.64,22.64,0,0,1,2.32-.91,15.2,15.2,0,0,0,2-.81,1.7,1.7,0,0,1,1.56.11,5,5,0,0,1,1.45,1.18,6.51,6.51,0,0,1,1.08,1.83,8.1,8.1,0,0,1,.53,2l3.56-.32a85,85,0,0,1,.53-10,20.89,20.89,0,0,1,2.59-8.07,8.25,8.25,0,0,1,3.87-2.9,10.27,10.27,0,0,1-1.56-1.46,6,6,0,0,1-1.08-1.77,4.25,4.25,0,0,1-.27-2,3.87,3.87,0,0,1,.87-2A137.56,137.56,0,0,1,684.25,405Q691,398.52,697.44,393.46Zm-15.5,52.63q2-4.51,3.93-8.5c1.25-2.65,2.38-5,3.39-7a39.17,39.17,0,0,0-7.43,1.19c-2.08.57-3.26,1.36-3.55,2.36a36.19,36.19,0,0,0-1.13,5.65,43,43,0,0,0-.27,6.52Zm16.79-27.55c2-1,3-1.94,3.07-2.8a2.67,2.67,0,0,0-1.24-2.26,11.4,11.4,0,0,0-3.28-1.61c-1.33-.43-2.32-.72-3-.86q-3.35,3.23-6.46,6.51t-6.24,6.62a71.14,71.14,0,0,1,7.85-.7,69.23,69.23,0,0,1,8.29.16,5.57,5.57,0,0,1-.65-2.91A2.59,2.59,0,0,1,698.73,418.54Zm-6.57,27.12q5.18-.21,10-.38c3.19-.1,6.15-.16,8.88-.16a36.92,36.92,0,0,0-.43-8.23q-.65-3.5-2.48-4.47a16.18,16.18,0,0,0-4-1.24,45.78,45.78,0,0,0-5.27-.69c-.65,1.22-1.56,3.19-2.75,5.91S693.6,442.22,692.16,445.66Z"/><path class="cls-1" d="M795.16,443.83a2.15,2.15,0,0,1,1.66,1.51,6.28,6.28,0,0,1,.38,2.74,6.87,6.87,0,0,1-.7,2.64,1.75,1.75,0,0,1-1.56,1.18q-3-.11-7.32-.11c-2.87,0-5.81.08-8.82.22q.42,2.81.81,5.22c.25,1.61.52,3.1.8,4.47a2.74,2.74,0,0,1-1.56,2.74,14.72,14.72,0,0,1-4.57,1.78,29.37,29.37,0,0,1-6.19.69,39.8,39.8,0,0,1-6.4-.37,18.49,18.49,0,0,1-5.12-1.4,3.83,3.83,0,0,1-2.42-2.48c-.28-1.22-.59-3.06-.91-5.54s-.61-5.31-.86-8.5-.43-6.58-.54-10.17a103.53,103.53,0,0,1,.21-10.6,78.64,78.64,0,0,1,1.3-9.79,26.5,26.5,0,0,1,2.63-7.7,11.45,11.45,0,0,1,5.65-4.84,38.5,38.5,0,0,1,9.31-2.75,65.87,65.87,0,0,1,11.09-.91,63.83,63.83,0,0,1,11,.91,44.68,44.68,0,0,1,9.1,2.53,11.28,11.28,0,0,1,5.43,4,24,24,0,0,1,2.8,6.73,60.61,60.61,0,0,1,1.62,8.77c.35,3.16.59,6.48.7,10s.08,6.88-.06,10.22-.36,6.55-.64,9.63-.61,5.81-1,8.18a4.22,4.22,0,0,1-2.8,2.91,10.89,10.89,0,0,1-4.41.59,9,9,0,0,1-3.93-1.13c-1.11-.65-1.6-1.4-1.45-2.26q1.07-5.16,1.77-11.41t1-12.37q.27-6.14,0-11.52a53.29,53.29,0,0,0-1-8.93,5.14,5.14,0,0,0-2-2.91,11.41,11.41,0,0,0-3.82-1.83,22.71,22.71,0,0,0-4.79-.81,20.84,20.84,0,0,0-4.73.22,12.34,12.34,0,0,0-3.82,1.24,3.48,3.48,0,0,0-1.94,2.26,28.46,28.46,0,0,0-.81,4q-.27,2.1-.48,4.26c3.16-.08,6.31-.06,9.47.05a56.67,56.67,0,0,1,7.75.7,2.15,2.15,0,0,1,1.67,1.5,6.49,6.49,0,0,1,.37,2.75,6.87,6.87,0,0,1-.7,2.64,1.75,1.75,0,0,1-1.56,1.18q-3.23-.1-8-.11t-9.36.22c0,1.5,0,3,.1,4.57s.18,3,.33,4.47q4.62,0,9.41.16A75.07,75.07,0,0,1,795.16,443.83Z"/><path class="cls-1" d="M841.43,427q1.73-2,4.42-5.06l5.75-6.45,6.25-7q3.17-3.55,6-6.46a6.28,6.28,0,0,1,4.3-2,11.81,11.81,0,0,1,5.28,1,22.89,22.89,0,0,1,5.22,3.12,18.39,18.39,0,0,1,4.09,4.41,11.31,11.31,0,0,1,1.83,4.9,6,6,0,0,1-1.35,4.52l-5,6.14q-2.68,3.33-5.38,6.78c-.07,1.72-.13,4-.16,6.83s-.06,5.72-.06,8.66,0,5.67.06,8.18a36,36,0,0,0,.37,5.49c.07.65-.32,1.17-1.18,1.56a8.08,8.08,0,0,1-2.91.7,7.48,7.48,0,0,1-3-.38,1.79,1.79,0,0,1-1.4-1.77q0-1.29.06-3.45c0-1.43.09-3,.16-4.78s.14-3.63.21-5.6.18-3.93.33-5.87l-3.56,4.85a4.29,4.29,0,0,1-3.87,1.77,14.29,14.29,0,0,1-5.44-1.29,25.43,25.43,0,0,1-5.7-3.5,22.58,22.58,0,0,1-4.63-4.84,12.83,12.83,0,0,1-2.2-5.33A6.25,6.25,0,0,1,841.43,427Zm55.75-24a2.5,2.5,0,0,1,2.53-.75,7.27,7.27,0,0,1,2.91,1.34,6.64,6.64,0,0,1,2,2.37,2.08,2.08,0,0,1-.11,2.32q-1.51,1.83-3.28,4.3t-3.61,5.17c-1.22,1.79-2.44,3.57-3.66,5.32s-2.33,3.39-3.33,4.9c-.36.5-1,.66-2,.48a8.57,8.57,0,0,1-3-1.18,9.9,9.9,0,0,1-2.53-2.15,1.89,1.89,0,0,1-.38-2.31c.79-1.37,1.81-3,3.07-4.85s2.56-3.73,3.93-5.59,2.71-3.64,4-5.33A48.16,48.16,0,0,1,897.18,403Zm-8,38.1a2.13,2.13,0,0,1-2.32-.7,7.28,7.28,0,0,1-1.72-2.8,6.68,6.68,0,0,1-.32-3.33,2.62,2.62,0,0,1,1.88-2.21q13-4.52,21.58-5.27c5.7-.51,10.17-.07,13.4,1.29a11.65,11.65,0,0,1,6.62,6.4,21.56,21.56,0,0,1,1.34,9.9,47.09,47.09,0,0,1-2.63,11.84,112.44,112.44,0,0,1-5.12,12.22c-.43.86-1.4,1.23-2.9,1.13a12.5,12.5,0,0,1-4.52-1.24,12.18,12.18,0,0,1-3.72-2.64c-1-1-1.16-2-.59-3q2.26-3.76,4.25-7.37a49.24,49.24,0,0,0,3.18-6.83,22.91,22.91,0,0,0,1.4-5.87,6.73,6.73,0,0,0-.92-4.36,6,6,0,0,0-3.87-2.37,20.88,20.88,0,0,0-7.37,0l-2.59,6.14q-1.39,3.33-2.79,6.89c-.94,2.36-1.83,4.77-2.69,7.21s-1.62,4.84-2.26,7.21a2.9,2.9,0,0,1-2.48,1.93,8.92,8.92,0,0,1-4.25-.16,8.14,8.14,0,0,1-3.66-2,2.83,2.83,0,0,1-.59-3.44q2.15-5.49,4.52-10.49T895,439.1c-.93.28-1.88.61-2.85,1Zm48-16.25a2.13,2.13,0,0,1-.27,2.42,8,8,0,0,1-2.48,2.31,8.68,8.68,0,0,1-3.17,1.24,2,2,0,0,1-2.26-.8c-.86-1.3-2.16-3.07-3.88-5.33s-3.6-4.59-5.65-7-4.07-4.7-6.08-6.89a50.55,50.55,0,0,0-5.16-5,1.9,1.9,0,0,1-.38-2.21,7.65,7.65,0,0,1,1.67-2.74A7.06,7.06,0,0,1,912.3,399a2.67,2.67,0,0,1,2.85.48c1.29,1.08,2.93,2.62,4.9,4.63s4,4.23,6.13,6.67,4.17,4.9,6.14,7.37S935.92,422.88,937.22,424.89Z"/><path class="cls-1" d="M563.15,725.39c-3.84,7.19-9.48,11.61-9.71,19.75-.08,3.11-8.63,6.91-9,10-.83,6.94,7.85,16.22,4.2,22.18-2.34,3.81-4.83,8.38-3.11,12.5,2.54,6.09,12.11,6.22,15.12,12.09.66,1.29.93,2.75,1.55,4.06,1.79,3.73,6,5.53,10,6.73,13.27,4,28.56,4.75,40.18-2.82a65,65,0,0,0,9.12-7.7l9.16-8.81a41.9,41.9,0,0,0,6.64-7.51,14.13,14.13,0,0,0,2.4-9.54c-.51-3.3-2.53-6.13-3.78-9.22-2.22-5.48-2-11.67-3.94-17.24-1.55-4.43-4.42-8.26-7.24-12s-5.67-7.52-9.59-10c-5.42-3.5-12.14-4.12-18.57-4.65-11.7-1-24-1.85-34.74,2.77"/><path class="cls-2" d="M560.56,723.88c-2.66,4.73-6.41,8.86-8.51,13.9a41.25,41.25,0,0,0-1.49,5.78c-.62,2.35-2.17,3.28-4.07,4.81-2.7,2.17-5.06,4.16-5.1,7.83-.06,4.37,2.29,8.41,3.79,12.37.92,2.44,1.77,4.7.87,7.24-.84,2.36-2.63,4.37-3.38,6.85-1.3,4.23-.67,8.67,2.53,11.89,2.88,2.89,6.92,3.88,10.2,6.14,3.9,2.69,3.94,8,7.79,11,7.93,6.2,21.61,7.54,31.3,6.86,11.88-.84,20.68-6.2,29.12-14.26,7.53-7.19,20.41-16.07,19.08-28-.66-5.87-4.6-11-5.67-16.85-1.14-6.23-2.18-11.93-5.6-17.39s-7.77-11.53-12.89-15.52c-4.51-3.51-9.92-5-15.49-5.75-13.72-1.85-28.9-3-42,2.22-3.54,1.42-2,7.22,1.6,5.79,10.34-4.15,21.28-3.68,32.18-2.82,5.1.41,10.44.67,15.25,2.56,5.28,2.08,8.77,6.41,12.08,10.8s6.35,8.59,7.67,13.84,1.44,10.46,3.51,15.41c2.6,6.26,5.15,10.5.63,16.78-3.28,4.55-7.94,8.28-12,12.15-8.14,7.82-15.78,14.13-27.49,15a54,54,0,0,1-13.67-.82c-4.54-.84-10.73-1.82-14.24-5-2.77-2.53-3-6.73-5.8-9.41-2.55-2.39-5.92-3.47-8.87-5.24-6-3.6-3.15-8.06-.68-13.21a12.29,12.29,0,0,0,.69-9c-1-4-3.55-7.61-4.25-11.68s3.34-5.38,6-8c3.08-3,2.32-5.86,3.79-9.73,1.87-4.93,5.74-9,8.31-13.57,1.9-3.37-3.28-6.4-5.18-3Z"/><path class="cls-1" d="M562.94,809.64c.6,4.16,2.14,4.55,4.55,8.58,1.85,3.1,4,6.18,7.22,7.88s6.68,1.81,10.12,1.43c7.9-.88,15.25-4.44,22-8.56s39.9-20.53,42.4-27.32c1.36-3.71.78-13-2.5-17.48-1.84-2.53-8.23-5.36-10.84-5.53"/><path class="cls-2" d="M560.05,810.44c1,5,4.76,9.94,7.93,13.77,4.32,5.19,10.23,7,16.85,6.32,10.93-1.06,20-7.12,29.4-12.22,8.18-4.46,16.42-8.84,24.3-13.82,5.31-3.35,13-7.41,14.13-14.2,2-11.5-3.67-22.85-15.92-24.54-3.78-.52-5.41,5.26-1.6,5.78,6.14.85,10.33,4.37,11.44,10.48.66,3.65,1.07,7.72-1.68,10.47-6.11,6.1-14.84,10.25-22.29,14.41-7,3.88-14,7.79-20.94,11.63-6.51,3.58-15.31,7.62-22.94,5.87-4.24-1-6.41-4.27-8.65-7.68-1.71-2.61-3.65-4.73-4.25-7.87-.72-3.79-6.51-2.18-5.78,1.6Z"/><path class="cls-1" d="M592.94,716.64c2-7,14.94-5.87,21-2a33.48,33.48,0,0,1,7,6c5.83,6.93,9.95,12.18,12,21,.8,3.42,3,19.58,3,24,0,2.43-2,11-4,13"/><path class="cls-2" d="M595.83,717.44c2.48-6.68,15.25-1.39,18.75,1.35,7.24,5.64,13.43,14.67,15.47,23.65a147.67,147.67,0,0,1,2.44,17.27c.54,5.18.87,12.47-2.67,16.81-2.42,3,1.8,7.24,4.24,4.24,4.83-5.91,5.15-14.4,4.37-21.61-.94-8.81-1.59-18.29-5.42-26.41-4.23-9-12.28-19.4-22-22.73-7.21-2.49-17.89-2.55-21,5.83-1.35,3.63,4.45,5.19,5.78,1.6Z"/><path class="cls-3" d="M589.34,775.89A26.66,26.66,0,0,1,590.65,789c-.29,1.88,2.6,2.7,2.89.79a29.7,29.7,0,0,0-1.31-14.66c-.64-1.8-3.54-1-2.89.8Z"/><path class="cls-1" d="M579.44,766.83a43.76,43.76,0,0,1,10.35,20.88"/><path class="cls-2" d="M577.32,769a42.66,42.66,0,0,1,9.58,19.55c.78,3.78,6.57,2.18,5.78-1.59a48.67,48.67,0,0,0-11.12-22.2c-2.53-2.93-6.76,1.33-4.24,4.24Z"/><path class="cls-3" d="M603.68,766.88c2.25,1.13,3.24,4.63,3.4,6.93.14,1.91,3.14,1.93,3,0-.23-3.32-1.66-7.89-4.88-9.52-1.72-.87-3.24,1.71-1.52,2.59Z"/><path class="cls-1" d="M597.89,760.52c2.76,1.19,6.43,7.31,6.69,13.29"/><path class="cls-2" d="M596.38,763.11c3.43,1.74,5,7.19,5.2,10.7.27,3.83,6.27,3.86,6,0-.39-5.57-2.78-13.15-8.18-15.88-3.43-1.75-6.47,3.43-3,5.18Z"/><path class="cls-3" d="M617.5,753.68c2.48,1.58,2.81,4.16,2.58,6.91-.17,1.93,2.83,1.92,3,0,.33-3.86-.69-7.34-4.07-9.5-1.63-1-3.14,1.55-1.51,2.59Z"/><path class="cls-1" d="M615.25,750.38c2.53,1.54,3.75,4,3.33,8.21"/><path class="cls-2" d="M613.74,753c1.92,1.23,2,3.31,1.84,5.62a3,3,0,0,0,3,3,3.06,3.06,0,0,0,3-3c.37-4.41-1-8.36-4.81-10.8-3.27-2.08-6.28,3.11-3,5.18Z"/><path class="cls-1" d="M570.94,726.64a30.94,30.94,0,0,1,5.44-8.88c2.5-2.49,9.56-3.12,13-1.19a17.17,17.17,0,0,1,4.25,3.54c5.33,5.83,10.2,10.13,12.7,20.12"/><path class="cls-2" d="M573.83,727.44c1.12-2.86,3.09-6.91,5.95-8.3,3.7-1.79,8-.51,10.77,2.08,6,5.49,10.76,11.95,12.9,19.81,1,3.72,6.8,2.14,5.78-1.6a40,40,0,0,0-8.08-15.52c-3.23-3.86-7-8.9-11.9-10.66-10.41-3.76-17.71,3.62-21.2,12.59-1.4,3.6,4.4,5.16,5.78,1.6Z"/><path class="cls-1" d="M548.94,747.64c-6-2-12.69,5.53-14,9-8.5,22.5,10.91,47.65,18.5,50.5,8,3,4.29,2.94,19,1"/><path class="cls-2" d="M549.74,744.75c-9.51-2.24-17,7-19,15.34-2.49,10.84.28,22.19,5.4,31.85,3.51,6.65,8.72,14.47,15.76,17.79,7.27,3.43,12.64,2.46,20.51,1.41,3.77-.5,3.82-6.51,0-6-5.21.7-10.27,2.24-15.27.26-5.55-2.19-9.23-6.14-12.57-11.07-4.69-6.93-8.16-15.08-8.7-23.51-.28-4.45,0-9.72,2.15-13.74,1.77-3.35,6-7.51,10.09-6.55,3.76.89,5.36-4.9,1.6-5.78Z"/><path class="cls-1" d="M551.94,753.64c-2.5,2.5-4,5-4,7,0,4.12,3,4,4.67,2.3,1.25-1.27,4.33-7.3,1.79-11.4-1.22-2-16.35-30.57-17.79-33.8-3.62-8.12.09-18.46,3.83-20.6,7.27-4.15,17.3,6.45,23,15a132.55,132.55,0,0,1,14.44,29.08"/><path class="cls-2" d="M549.82,751.52c-3.09,3.31-7,8.72-3.74,13.28,2.22,3.14,6.4,2.62,8.84,0a14.19,14.19,0,0,0,2.94-12.93c-.8-2.41-2.48-4.78-3.67-7q-6.23-11.58-12.27-23.25c-1.79-3.48-3.6-6.59-3.77-10.63-.25-6.26,2.64-14.5,10-10.45,6.83,3.74,11.67,11.18,15.57,17.67A124.77,124.77,0,0,1,575,742c1.23,3.64,7,2.08,5.78-1.59-4.15-12.22-10.21-24.42-18.23-34.57-5-6.36-16.24-17.75-24.88-10.37-6.95,5.93-6.56,17.82-2.92,25.27,3.47,7.1,7.28,14,11,21,1.76,3.3,3.64,6.56,5.31,9.9,1,1.93,1.59,3.55,1,5.83-.3,1.13-1.32,2.25-1.53,3.32.28-1.42,2.49-3.9,3.57-5.06,2.63-2.82-1.6-7.07-4.24-4.24Z"/><path class="cls-3" d="M646.51,778.62a2.13,2.13,0,0,1,3.24.77,17.15,17.15,0,0,1,.53,12.26c-2.5,6.79-35.6,23.2-42.4,27.32-7.21,4.37-15,8.12-23.49,8.69a17.23,17.23,0,0,1-10.74-2.77,12.88,12.88,0,0,1-4.12-4.6.14.14,0,0,1,.07-.2l24.42-8.3c1.25-.43,2.51-.79,3.78-1.16a65,65,0,0,0,24.05-13c1-.86,2-1.71,3.06-2.51Z"/><path class="cls-2" d="M560.05,810.44c1,5,4.76,9.94,7.93,13.77,4.32,5.19,10.23,7,16.85,6.32,10.93-1.06,20-7.12,29.4-12.22,8.18-4.46,16.42-8.84,24.3-13.82,5.31-3.35,13-7.41,14.13-14.2,2-11.5-3.67-22.85-15.92-24.54-3.78-.52-5.41,5.26-1.6,5.78,6.14.85,10.33,4.37,11.44,10.48.66,3.65,1.07,7.72-1.68,10.47-6.11,6.1-14.84,10.25-22.29,14.41-7,3.88-14,7.79-20.94,11.63-6.51,3.58-15.31,7.62-22.94,5.87-4.24-1-6.41-4.27-8.65-7.68-1.71-2.61-3.65-4.73-4.25-7.87-.72-3.79-6.51-2.18-5.78,1.6Z"/><path class="cls-1" d="M485.41,698.55a7.37,7.37,0,0,0-6.27-11.46H479c-4,.17-7.93,1.58-11.69,3.09a185.21,185.21,0,0,0-56.7,36c-6.71,6.22-13.28,13.59-14.46,22.66,0,0-4-4.19-5-5.53s-2.61-3.06-4.24-4.79a7.05,7.05,0,0,0-10.48.26A300.76,300.76,0,0,0,347,779.57a10.63,10.63,0,0,0-1.6,5.64c.19,7.75,8.71,9.07,15.26,8.56a116.48,116.48,0,0,0,40.24-10.62c6.69-3.14,13.9-8.22,14.05-15.61,0,0-1.9-5.85-4.86-8.73L408.2,757,471.34,710s12.69-9.46,13.83-11.12Z"/><path class="cls-2" d="M488,700.06c3.91-7.1-.48-16-9-16-5.69,0-11.28,2.63-16.4,4.82a187.28,187.28,0,0,0-48.95,30.5c-8.91,7.65-18.37,16.45-20.4,28.59l5-1.32c-3.47-3.63-6.56-8.54-10.61-11.45-5.15-3.69-10.78-1.6-14.56,2.76-5.65,6.51-10.89,13.47-15.88,20.5-4.71,6.62-10.44,13.74-13.63,21.24-2.06,4.84-1.32,10.47,2.9,13.85s10,3.52,15.1,3.11c15.69-1.29,33.91-5.33,47-14.47,4.67-3.26,10.34-9.16,9.23-15.47-.82-4.61-4.29-8.79-7.56-11.9l-.61,4.71q31.38-23.32,62.75-46.64c5-3.75,12-7.59,15.54-12.86,2.16-3.22-3-6.22-5.18-3-1.91,2.86-6.19,5.25-8.92,7.34q-2.16,1.65-4.34,3.28L458.27,716l-40.65,30.21-10.94,8.13c-1.49,1.11-2.13,3.25-.6,4.71,2.66,2.54,6.37,6.42,5.64,10.32-1.22,6.5-9.94,10.17-15.26,12.47a113.3,113.3,0,0,1-22.16,7C368,790.14,360,792,353.57,790.37c-9.3-2.4-2.9-11.12.32-16.17q6-9.48,12.76-18.5,3.81-5.1,7.84-10c2.57-3.14,5.73-8.71,10.28-5.09,3.47,2.77,6.19,7.09,9.28,10.32,1.44,1.52,4.63.93,5-1.32,1.57-9.45,8.13-16.29,15-22.51a180.25,180.25,0,0,1,23.38-18,184.89,184.89,0,0,1,24.29-13.27c4.42-2,9.07-4.23,13.86-5.23,4.27-.9,10.41.73,7.27,6.43C481,700.42,486.14,703.45,488,700.06Z"/><path class="cls-1" d="M560.84,658.11a5.85,5.85,0,0,0,1.54,3.11,6.85,6.85,0,0,0,3.54,1.63,33.24,33.24,0,0,0,15.52-1.21c32-15.13,92.39-38.21,107.24-43.83a4.73,4.73,0,0,1,5.54,1.7,104.24,104.24,0,0,1,6.64,10.75c.42.78,2.41,3.91,4.1,6.54a5.32,5.32,0,0,0,7.07,1.77c5.89-3.32,19.17-21.62,20.41-24.93,3-8,13-21,8-29-4.89-7.82-23-8-29-8-6.57,0-17.23-2-22.18-3.55a4.91,4.91,0,0,0-6.23,3.5,22.6,22.6,0,0,0-.48,2.81,104.71,104.71,0,0,0-.72,15.23,10,10,0,0,1-8.62,10.16l-30.82,4.44c-26,3.77-48.95,14.41-75.45,21.91C566.94,631.14,556.44,632.64,560.84,658.11Z"/><path class="cls-2" d="M558,658.91c2.34,8.68,12.89,7.93,20,6.74s14.31-5.74,21-8.65c17-7.44,34.31-14.4,51.61-21.24q10.8-4.28,21.64-8.45c5-1.94,10.48-4.95,15.75-6,2.24-.46,3.33-.16,5.19,2s2.94,4.65,4.24,6.93c2,3.55,4,8.31,7.47,10.63,6.23,4.2,12-1.84,15.9-6.19a118.85,118.85,0,0,0,21.83-35.32c2.71-6.73,3.62-14.51-2.64-19.53-5.3-4.25-12.87-5.25-19.42-5.8-7.94-.68-15.65-.49-23.54-2.08-3.29-.67-7-2.4-10.41-1.89-4.19.65-6.22,4-6.84,7.89-.88,5.58-.35,11.17-.92,16.73-.71,6.91-6.42,7.27-12.06,8.08-10.18,1.46-20.45,2.67-30.57,4.52-13,2.37-25.64,6.44-38.15,10.68-10.66,3.61-21.57,6.67-32.17,10.4-11.62,4.08-9.43,21.41-7.93,30.6.62,3.8,6.4,2.19,5.79-1.59-1-6.21-2.36-14.62,1-20.47a6.32,6.32,0,0,1,3-2.81c9.25-3.51,19.09-6,28.48-9.17,10-3.39,19.94-6.77,30.15-9.35a271,271,0,0,1,27.87-5l12.63-1.82c3.87-.55,8.21-.62,11.65-2.67,7.7-4.6,6-13.33,6.52-20.94.17-2.59-.25-7.06,2.17-8.42,1.74-1,3.1-.16,5,.29a107.34,107.34,0,0,0,11.94,2.12c8.42,1,34.57-2,34.71,10.87.08,7.43-5.77,15-8.73,21.54-2.2,4.87-5.68,9.25-9,13.43-1.92,2.43-3.92,4.83-6.07,7.07a24.44,24.44,0,0,1-2.78,2.7,7.07,7.07,0,0,1-1.2.95c-2.73,1.18-3.83-1-5.23-3-2.41-3.46-4.23-7.31-6.5-10.85-2-3.06-3.86-6.53-7.79-7.13s-9,2.33-12.71,3.74q-8.37,3.21-16.73,6.47c-16.64,6.48-33.24,13.09-49.73,20-7.65,3.2-15.29,6.46-22.86,9.84-3.56,1.6-7.16,3.75-10.93,4.78-3.92,1.07-13.54,2.72-14.84-2.11C562.73,653.59,556.94,655.17,558,658.91Z"/><path class="cls-1" d="M114,554.16c3.92,7.14,4.54,14.28,11.24,18.92,2.57,1.77,1.08,11,3.47,13,5.36,4.48,17.87,2.28,20.87,8.59,1.92,4,4.38,8.62,8.78,9.43,6.48,1.19,11.82-6.75,18.38-6.07,1.44.15,2.81.73,4.25.92,4.1.54,7.92-2,11.09-4.69,10.63-8.91,19.57-21.34,19.58-35.21a64.12,64.12,0,0,0-1.48-11.84c-.78-4.16-1.58-8.32-2.37-12.48a41.77,41.77,0,0,0-2.67-9.67,14.15,14.15,0,0,0-6.68-7.22c-3-1.37-6.52-1.22-9.79-1.86-5.8-1.13-10.86-4.71-16.59-6.12-4.56-1.12-9.34-.81-14-.5s-9.4.65-13.65,2.55c-5.89,2.64-10.09,7.93-14,13-7.2,9.27-14.63,19-16.65,30.61"/><path class="cls-2" d="M111.38,555.67c2.5,4.8,3.88,10.26,7,14.72,1.27,1.82,3.39,3.06,4.56,4.82,1.3,2,1,4.67,1.35,7,1.14,8.63,8.82,9,16,10.59,1.89.41,4.16.78,5.64,2.12,1.68,1.52,2.36,4.22,3.64,6.1,2.45,3.59,6,6.33,10.51,6.17,4.22-.15,7.53-2.77,11.12-4.63,5.23-2.72,10.24.57,15.71-1.57,9.47-3.69,17.93-14.26,22.6-23,5.86-10.93,5.4-21.55,3.16-33.39-1.86-9.82-2.38-24.31-12.77-29.38a20.58,20.58,0,0,0-6.32-1.62,40.54,40.54,0,0,1-11.05-2.87c-5.16-2.23-10-4.29-15.73-4.63-6.81-.41-15.13,0-21.64,2.25-5.71,2-10.13,6.06-13.95,10.62-8.75,10.45-17.75,22.11-20.45,35.76-.75,3.77,5,5.38,5.79,1.59,2.14-10.81,8.47-19.69,15.07-28.26,2.88-3.73,5.77-7.67,9.46-10.64,5.4-4.35,12-4.83,18.67-5.2,5.46-.31,10.53-.12,15.66,1.92,4.68,1.86,9,4.19,14,5,6.25,1,10.82,1.81,13.37,8.27,2,5.05,2.54,10.85,3.55,16.15,2.12,11.13,3.52,21-2,31.45a52.87,52.87,0,0,1-8.22,11.27c-3.33,3.55-8.45,9.49-13.67,9.74-4.16.2-7.07-1.65-11.29,0-3.38,1.28-6.55,4.44-10.12,5.06-5.68,1-6.94-5-9.4-8.68-1.67-2.47-4.28-3.79-7-4.66-3.78-1.18-7.9-1.21-11.61-2.63s-2.74-5.6-3.4-9.07c-.84-4.45-3.44-5.14-6.05-8.62-3.22-4.32-4.52-10-7-14.73-1.78-3.42-7-.39-5.18,3Z"/><path class="cls-1" d="M184.44,600.33c3.81,1.78,5,.7,9.67.88,3.6.14,7.38,0,10.54-1.75s5.17-4.61,6.73-7.7c3.58-7.09,4.6-15.2,4.87-23.14s4.58-44.64.26-50.44c-2.36-3.17-10.43-7.73-16-7.45-3.12.16-9,4-10.55,6.06"/><path class="cls-2" d="M183.64,603.23c4.84,2,11.6,1.45,16.67.69,5.78-.87,10.06-4.33,12.95-9.33,5.62-9.73,5.52-20.94,6.38-31.78.72-9.21,1.55-18.42,1.74-27.66.13-6.16,1.1-15.37-3.72-20.15-8.5-8.46-21.63-9.78-29.83-.33-2.52,2.9,1.7,7.16,4.24,4.24,4.47-5.14,10.12-6.12,16.13-3.16,3.63,1.79,6.14,3.45,6.78,7.43,1.39,8.73.27,18.19-.35,27-.58,8.13-1,16.35-1.76,24.46-.68,7-2.35,16.16-8,21-3.06,2.67-7,2.58-10.81,2.59-3.13,0-5.92.44-8.87-.77-3.58-1.46-5.13,4.34-1.6,5.79Z"/><path class="cls-1" d="M122.91,524.42c-4.78-5.5,3.24-15.72,9.79-18.68a33.37,33.37,0,0,1,8.84-2.59c9-1.1,15.64-1.69,24.15,1.41,3.3,1.2,18,8.2,21.74,10.59,2,1.32,8.13,7.68,8.71,10.45"/><path class="cls-2" d="M125.5,522.91c-5.06-7,7.86-14.67,13.11-16.09,8.56-2.32,18.72-2.37,27,.92a174.21,174.21,0,0,1,16,7.63c4.41,2.3,10,6,11.59,11,1.17,3.66,7,2.1,5.78-1.6-2.08-6.54-8.49-11.56-14.35-14.61-7.47-3.9-15.55-8.47-23.89-10.12-9.85-1.94-23.54-1.26-32.1,4.51-6.22,4.2-13.8,13.86-8.38,21.36,2.25,3.09,7.46.1,5.19-3Z"/><path class="cls-3" d="M170.63,559.81a26.23,26.23,0,0,1,11.67,6.08c1.43,1.29,3.56-.82,2.12-2.12a29.54,29.54,0,0,0-13-6.86c-1.88-.44-2.68,2.45-.8,2.9Z"/><path class="cls-1" d="M157.58,563.13a43.89,43.89,0,0,1,23.14,2.73"/><path class="cls-2" d="M158.38,566a43.07,43.07,0,0,1,21.54,2.73c3.61,1.39,5.17-4.41,1.6-5.79a49.21,49.21,0,0,0-24.74-2.73c-3.81.51-2.19,6.3,1.6,5.79Z"/><path class="cls-3" d="M170.94,542.81c2.17-1.25,5.67-.08,7.64,1,1.69.93,3.21-1.66,1.52-2.59-3-1.64-7.52-2.83-10.67-1a1.5,1.5,0,0,0,1.51,2.59Z"/><path class="cls-1" d="M162.37,544.23c2.5-1.66,9.63-1.4,14.78,1.65"/><path class="cls-2" d="M163.88,546.82c3.3-1.89,8.77,0,11.76,1.65,3.38,1.88,6.41-3.3,3-5.18-5-2.75-12.53-4.68-17.82-1.65-3.35,1.92-.33,7.11,3,5.18Z"/><path class="cls-3" d="M167.43,524c2.5-1.12,4.82-.13,6.87,1.46,1.51,1.17,3.65-.94,2.12-2.12-3.23-2.51-6.62-3.67-10.51-1.93-1.76.78-.23,3.37,1.52,2.59Z"/><path class="cls-1" d="M163.36,524.15c2.67-1.27,5.38-1,8.69,1.7"/><path class="cls-2" d="M164.87,526.74c1.8-.8,3.62.12,5.06,1.23a3.1,3.1,0,0,0,4.24,0c1-1,1.29-3.24,0-4.24-3.82-3-7.76-4.21-12.33-2.17-1.48.66-1.83,2.82-1.07,4.11a3.06,3.06,0,0,0,4.1,1.07Z"/><path class="cls-1" d="M119.27,548.31a31,31,0,0,1-4.47-9.4c-.72-3.46,2.61-9.72,6.1-11.55a17.48,17.48,0,0,1,5.29-1.63c7.8-1.28,14.07-3,23.79.35"/><path class="cls-2" d="M121.86,546.8c-1.71-2.39-4-5.89-4.16-8.9-.2-4.14,3.61-7.86,7.25-8.85,8-2.17,16.31-2.62,24.24-.08,3.68,1.18,5.26-4.61,1.59-5.79a39.53,39.53,0,0,0-17.58-1.62c-4.92.65-10.94,1-15.06,4.05-8.65,6.35-7,16.54-1.46,24.22,2.23,3.11,7.44.11,5.18-3Z"/><path class="cls-1" d="M124.85,578.21c-4.95,3.93-2.29,13.65-.1,16.64,14.21,19.41,45.87,16.89,52.41,12.08,6.88-5.07,4.8-2,11.21-15.37"/><path class="cls-2" d="M122.73,576.09c-7.32,6.91-2.89,18.67,3.19,24.71,7.56,7.52,18,11.16,28.47,12.23,7.33.75,16.58.77,23.25-2.88,7.42-4.07,9.77-9.65,13.32-17.08,1.65-3.47-3.52-6.51-5.18-3-2.84,5.94-4.41,10.83-10.14,14.3-4.57,2.76-10.56,3-15.77,3-8.13-.08-16.5-1.84-23.54-6-3.49-2.08-7.27-5-9.38-8.57s-3.17-9.4,0-12.41c2.82-2.65-1.43-6.89-4.24-4.24Z"/><path class="cls-1" d="M131.52,579c.72,3.46,2,6.08,3.68,7.18,3.45,2.25,5-.33,4.47-2.66-.38-1.74-3.75-7.61-8.57-7.73-2.33-.06-34.54-3-38-3.54-8.77-1.41-15.41-10.16-15.16-14.46.5-8.36,14.85-11,25.13-11.08a132,132,0,0,1,32.24,3.78"/><path class="cls-2" d="M128.62,579.77c1.11,4.48,4,11.18,9.86,10.13,4.21-.74,4.92-5.43,3.49-8.77-3.51-8.18-10.83-8.31-18.38-9-8.93-.77-17.86-1.56-26.77-2.51-4.53-.49-8.66-1.73-12.16-5.25-1.49-1.5-3.73-4-3.74-6.31,0-2.89,3-4.54,5.34-5.55,6.59-2.88,14.32-3,21.39-2.82a123.77,123.77,0,0,1,26.82,3.62c3.75,1,5.34-4.83,1.6-5.78-12.81-3.27-27-5-40.23-3.42-7.73.93-21.45,4-20.92,14.32.46,9,10.92,15.78,18.9,16.85,7.78,1,15.66,1.59,23.48,2.29,4,.36,8,.61,12,1,1.89.2,3.29.33,4.88,1.67.87.74,2.33,2.37,2.51,3.53-.27-1.79-1.78-3.78-2.24-5.66-.93-3.75-6.71-2.16-5.79,1.59Z"/><path class="cls-3" d="M204.08,513.39a2.14,2.14,0,0,1,2.41-2.3,17.12,17.12,0,0,1,10.56,6.25c4.33,5.81,0,42.5-.26,50.44-.28,8.43-1.41,17-5.55,24.43a17.23,17.23,0,0,1-8.18,7.48,12.84,12.84,0,0,1-6.11.94.14.14,0,0,1-.13-.17l6.39-25c.32-1.28.7-2.54,1.09-3.8a65,65,0,0,0,2.26-27.23c-.17-1.31-.33-2.62-.43-3.93Z"/><path class="cls-2" d="M183.64,603.23c4.84,2,11.6,1.45,16.67.69,5.78-.87,10.06-4.33,12.95-9.33,5.62-9.73,5.52-20.94,6.38-31.78.72-9.21,1.55-18.42,1.74-27.66.13-6.16,1.1-15.37-3.72-20.15-8.5-8.46-21.63-9.78-29.83-.33-2.52,2.9,1.7,7.16,4.24,4.24,4.47-5.14,10.12-6.12,16.13-3.16,3.63,1.79,6.14,3.45,6.78,7.43,1.39,8.73.27,18.19-.35,27-.58,8.13-1,16.35-1.76,24.46-.68,7-2.35,16.16-8,21-3.06,2.67-7,2.58-10.81,2.59-3.13,0-5.92.44-8.87-.77-3.58-1.46-5.13,4.34-1.6,5.79Z"/><path class="cls-1" d="M24.59,590.52a7.38,7.38,0,0,0-13.06-.17l-.06.11c-1.84,3.61-2.52,7.68-3.05,11.69a185.31,185.31,0,0,0,3.44,67.07c2.12,8.9,5.31,18.23,12.62,23.73,0,0-5.61,1.43-7.29,1.67s-3.94.76-6.25,1.33A7.06,7.06,0,0,0,6,705.21a301.53,301.53,0,0,0,21.12,45.64A10.62,10.62,0,0,0,31.26,755c6.84,3.64,12.17-3.13,15-9.08a116.41,116.41,0,0,0,10.53-40.27c.56-7.37-.32-16.14-6.68-19.9,0,0-6-1.23-10-.06l-2.56.78-9.83-78.06s-2-15.7-2.89-17.51Z"/><path class="cls-2" d="M27.18,589c-4.22-6.82-14-7.48-18.24-.17-2.6,4.53-3.14,10.1-3.76,15.18a184,184,0,0,0-1.34,21.51,189.14,189.14,0,0,0,4.1,39.91c2.29,10.85,5.41,22.38,14.42,29.63l1.33-5c-4.87,1.24-10.65,1.51-15.19,3.62-5.26,2.44-6.8,8-5.06,13.21a226.5,226.5,0,0,0,10,24c3.53,7.57,7,16,11.93,22.78,3.26,4.53,9.07,6.82,14.28,4.34,5.73-2.73,8.62-9,11-14.54,5.82-13.77,11-31,9-46.18-.68-5.26-3.17-12.46-8.79-14.37-4.45-1.51-9.71-.59-14.06.73l3.8,2.9q-4.87-38.79-9.76-77.57c-.8-6.26-.7-14.22-3.57-19.91-1.74-3.45-6.91-.41-5.18,3,1.51,3,1.5,7.8,2,11.15q.41,2.77.76,5.57.89,7,1.75,14L32.81,673l1.7,13.52c.23,1.84,1.74,3.52,3.8,2.89,3.29-1,8.12-2.26,11.22-.36,4.89,3,4.54,11.8,4.21,16.65a108.21,108.21,0,0,1-4.06,22.44c-2,6.95-4.3,14.81-8.6,20.7-2.27,3.11-5.41,5.63-9.18,3-3-2.16-5-7.39-6.66-10.61Q20,731.28,15.53,721q-2.46-5.62-4.66-11.35c-1.42-3.68-4.22-8.68.87-10.8,4-1.69,9.25-1.92,13.54-3,2-.52,3.12-3.58,1.33-5-7-5.62-9.82-13.94-11.86-22.4a177,177,0,0,1-4.5-29.77,184,184,0,0,1,.34-29c.45-5,.8-10.35,2.46-15.16,1.42-4.12,5.85-7.42,9-2.41C24,595.32,29.22,592.31,27.18,589Z"/><path class="cls-1" d="M26.46,505a5.93,5.93,0,0,0,3.46.19,6.84,6.84,0,0,0,3.16-2.28,24.8,24.8,0,0,0,4.81-8.23,24.58,24.58,0,0,0,1.76-5.88c2.56-35.31,12.14-99.24,14.54-114.94a4.73,4.73,0,0,1,4.21-4,104.52,104.52,0,0,1,12.63-.5c.88,0,4.59-.18,7.71-.36a5.31,5.31,0,0,0,5-5.29c0-6.76-9.4-27.32-11.67-30-5.49-6.54-11.9-21.64-21.33-21.22-9.21.42-18.27,16.1-21.22,21.33-3.23,5.72-10.21,14-14,17.57a4.9,4.9,0,0,0,0,7.14,24.84,24.84,0,0,0,2.21,1.8,104.78,104.78,0,0,0,12.91,8.12,10,10,0,0,1,4.62,12.49c-3.35,8.6-8.38,21.54-11.29,29-9.48,24.45-11.51,49.71-18,76.47C6,486.39,2.11,496.27,26.46,505Z"/><path class="cls-2" d="M25.66,507.86c8.88,1.83,13.15-6.9,15.76-14,2.45-6.7,2-14.85,2.74-21.91C46.05,453.42,48.45,435,51,416.57q1.63-11.85,3.37-23.67c.77-5.31,1-11.22,2.44-16.39.56-2,1-3.06,3.4-3.84s6.44-.36,9-.35c3.9,0,8.75.5,12.38-1,7.32-3,5-11.42,3-17.17a121.21,121.21,0,0,0-19.54-35.72c-3.87-5-9.26-10-16.12-8.78-7.35,1.34-12.79,8.42-16.8,14.17-4.44,6.37-7.9,13.13-12.94,19.11-2.37,2.81-6.33,5.7-7.66,9.18-1.41,3.7.1,7,2.91,9.43a72.73,72.73,0,0,0,11.68,7.81c2.61,1.49,5.55,2.64,6.48,5.83.84,2.9-.51,5.51-1.54,8.16-3.56,9.16-7.24,18.28-10.67,27.49-4.62,12.41-7.49,25.35-10,38.33-2.35,12.18-5.17,24.32-7.39,36.51s13.61,18.87,22.61,22.19c3.63,1.33,5.19-4.46,1.6-5.79-5.93-2.19-14.59-5.3-17.73-11.43-1.27-2.47-.83-2.78-.23-5.31,4.91-20.48,7.3-41.51,13.22-61.74,2.62-8.94,6.16-17.55,9.53-26.22q2.3-5.88,4.57-11.76c1.38-3.53,2.84-6.89,2.09-10.76-1.6-8.3-10.51-10.94-16.7-15.19-2.31-1.59-6-3.18-4-6.54.68-1.15,2.29-2.35,3.2-3.35a111.63,111.63,0,0,0,7.68-9.54c5.51-7.67,16.26-32.84,28.24-21.81,5,4.62,8.48,11.28,12.39,16.82,3.15,4.46,5.27,9.93,7.27,15a90.9,90.9,0,0,1,3,8.63,14.37,14.37,0,0,1,.84,3.57c0,3.43-3.82,3.7-6.61,3.83-6.29.29-17.89-2.16-21.76,4.34-2.07,3.47-2,9-2.56,12.91q-1.34,9-2.63,18.07c-2.51,17.55-4.89,35.12-7,52.73-1,8.39-1.92,16.79-2.69,25.2-.35,3.86-.22,8-1.42,11.72s-4,11.85-8.74,10.87C23.49,501.29,21.88,507.07,25.66,507.86Z"/><path class="cls-1" d="M165.43,204.68a8.41,8.41,0,0,1,6.23,2.6,8.66,8.66,0,0,1,2.55,6.28,8.38,8.38,0,0,1-2.55,6.13,8.87,8.87,0,0,1-12.45,0,8.39,8.39,0,0,1-2.56-6.13,8.67,8.67,0,0,1,2.56-6.28A8.39,8.39,0,0,1,165.43,204.68Zm20.72-57.05c0-1,.61-1.74,1.84-2.35a9.35,9.35,0,0,1,4-1,9.55,9.55,0,0,1,4.14.82,3.7,3.7,0,0,1,2.24,3.11l.41,2.86c2.58.07,5.1.18,7.55.35s4.66.39,6.64.67a2.63,2.63,0,0,1,2.09,1.63,6.62,6.62,0,0,1-.1,5.77,1.87,1.87,0,0,1-1.89,1.17q-2.35-.1-5.92-.1t-7.55.1l.2,6.53a83.75,83.75,0,0,1,9.85.92,21.27,21.27,0,0,1,6.48,1.84,9.84,9.84,0,0,1,3.57,3.62,18.19,18.19,0,0,1,2.09,5.41,28.64,28.64,0,0,1,.67,6.28,27.14,27.14,0,0,1-.67,6.17,17.08,17.08,0,0,1-2,5.11,7.19,7.19,0,0,1-3.16,3,29.58,29.58,0,0,1-6.38,1.84,74.82,74.82,0,0,1-8.32,1q-4.49.3-9.23.3c-3.17,0-6.21-.1-9.14-.3s-5.6-.52-8-.92a28.59,28.59,0,0,1-5.87-1.53,6.84,6.84,0,0,1-3.37-3.17,19.22,19.22,0,0,1-2-5.41,27,27,0,0,1-.56-6.53,30.73,30.73,0,0,1,.87-6.53,19.4,19.4,0,0,1,2.19-5.41,7.8,7.8,0,0,1,3.57-3.27,29.32,29.32,0,0,1,5.87-1.43,75.84,75.84,0,0,1,8.63-.81c.2-1.84.39-3.57.56-5.21s.29-3.23.36-4.8.13-3.14.2-4.74S186.15,149.4,186.15,147.63ZM179,211.42a2.46,2.46,0,0,1-.26-2.5,4.81,4.81,0,0,1,1.79-2.09,5.09,5.09,0,0,1,2.75-.87,3.25,3.25,0,0,1,2.66,1.27,46.52,46.52,0,0,1,2.75,3.83q1.44,2.2,2.76,4.54a2.78,2.78,0,0,1,.1,2.81,4.91,4.91,0,0,1-2.09,2,5.59,5.59,0,0,1-2.86.66,2.42,2.42,0,0,1-2.19-1.37c-.48-.82-.92-1.57-1.33-2.25s-.82-1.33-1.22-1.94l-1.28-1.89C180.15,213,179.62,212.23,179,211.42Zm6.63-34.91a4.45,4.45,0,0,0-2.45,3,15.41,15.41,0,0,0-.81,5.05,16.25,16.25,0,0,0,.76,5.06,4,4,0,0,0,2.3,2.85,20.29,20.29,0,0,0,4.9.82,63,63,0,0,0,6.33.1c2.17-.06,4.26-.22,6.27-.46a30.64,30.64,0,0,0,4.75-.86,3.54,3.54,0,0,0,2.24-2.71,16.64,16.64,0,0,0,.57-4.8,19.38,19.38,0,0,0-.72-4.9,6,6,0,0,0-1.58-3,6.23,6.23,0,0,0-2.4-.81,28.92,28.92,0,0,0-3.88-.41c-1.46-.07-3-.1-4.64-.1s-3.22.05-4.75.15a40,40,0,0,0-4.13.46A19.42,19.42,0,0,0,185.64,176.51ZM197,211.42a2.27,2.27,0,0,1-.3-2.5,5.26,5.26,0,0,1,4.59-3,3.24,3.24,0,0,1,2.65,1.27q1.23,1.64,2.71,3.83c1,1.47,1.92,3,2.8,4.54a2.79,2.79,0,0,1,.11,2.81,5,5,0,0,1-2.1,2,5.58,5.58,0,0,1-2.85.66,2.44,2.44,0,0,1-2.2-1.37c-.48-.82-.92-1.57-1.33-2.25s-.81-1.33-1.22-1.94-.83-1.24-1.28-1.89S197.58,212.23,197,211.42Zm18-.21a2.48,2.48,0,0,1-.31-2.65,5.1,5.1,0,0,1,1.94-2.3,5.43,5.43,0,0,1,3-.86,3.43,3.43,0,0,1,2.81,1.43,49.35,49.35,0,0,1,3,4c1,1.53,2,3.15,3,4.84a3,3,0,0,1,.1,3.07,5.58,5.58,0,0,1-2.25,2.19,6,6,0,0,1-3.06.72,2.55,2.55,0,0,1-2.35-1.48c-.47-.89-.93-1.71-1.37-2.45s-.89-1.47-1.33-2.15-.92-1.36-1.43-2S215.55,212.1,214.94,211.21Z"/><path class="cls-1" d="M291.18,146.4a2.43,2.43,0,0,1,1.38-2.14,6.68,6.68,0,0,1,3.06-.92,6.1,6.1,0,0,1,3.06.56,2.46,2.46,0,0,1,1.48,2.2c0,.61,0,1.27,0,2s.09,1.48.16,2.29c2.85.14,5.63.36,8.31.67s5.23.66,7.61,1.07a3.69,3.69,0,0,1,2.45,1.78,10.59,10.59,0,0,1,1.32,3.58,17,17,0,0,1,.26,4.44,18.61,18.61,0,0,1-.77,4.33,10.79,10.79,0,0,1-1.58,3.32,2.55,2.55,0,0,1-2.29,1.23q-6.94-.31-14.29-.31l.4,11.33c3.07-.21,6.06-.38,9-.51s5.63-.24,8.11-.31,4.68-.12,6.58-.15,3.37,0,4.39.05a2.87,2.87,0,0,1,2.61,1.73,7.65,7.65,0,0,1,.71,3.48,7.36,7.36,0,0,1-.87,3.36,2.19,2.19,0,0,1-2.14,1.43q-3.89-.09-11.43,0t-16.54.51q.21,6,.31,11.13t0,8.47q3.57-.4,7-1t6.33-1.43q0-4.91-.31-9.39a2,2,0,0,1,1.18-1.89,7.44,7.44,0,0,1,3-1,7.08,7.08,0,0,1,3.16.31,2.27,2.27,0,0,1,1.69,1.84c.4,2.44.71,5.25.91,8.42a73.83,73.83,0,0,1,0,9.64,3.5,3.5,0,0,1-1.78,3.11,7,7,0,0,1-3.57,1,6.53,6.53,0,0,1-3.42-.91,2.37,2.37,0,0,1-1.33-2.46q-5.5,1.23-12.15,2.1a107.36,107.36,0,0,1-13,.92,68.13,68.13,0,0,1-11.58-.82,17.07,17.07,0,0,1-8-3.11,7.18,7.18,0,0,1-2.09-2.61,12.31,12.31,0,0,1-1.07-3.42,16.4,16.4,0,0,1-.2-3.62,20.67,20.67,0,0,1,.4-3.21,2.6,2.6,0,0,1,1.69-1.79,6.51,6.51,0,0,1,2.91-.46,5.83,5.83,0,0,1,2.75.87,2.16,2.16,0,0,1,1.13,2.09,13,13,0,0,0,.3,5.31,3.36,3.36,0,0,0,2.76,1.94,38.74,38.74,0,0,0,4.69.41q2.86.1,6.33,0c.14-2.38.24-5.28.31-8.68s.13-7.11.2-11.12q-7.14.41-13.83,1t-11.79,1.28a2.33,2.33,0,0,1-2.29-1,6.92,6.92,0,0,1-1.33-2.86,5.83,5.83,0,0,1,.15-3.16,2.8,2.8,0,0,1,2-1.94c.89-.21,2.23-.43,4-.67s3.9-.49,6.28-.76,5-.53,7.91-.77,5.9-.46,9-.66v-5.87c0-1.94,0-3.86.1-5.76-2.79.13-5.55.29-8.27.45s-5.44.36-8.17.57a2.64,2.64,0,0,1-2.34-1.33,10.72,10.72,0,0,1-1.58-3.67,23.76,23.76,0,0,1-.67-4.9,21.44,21.44,0,0,1,.36-5,11.76,11.76,0,0,1,1.53-4,3.84,3.84,0,0,1,2.91-1.89q3.67-.41,7.86-.61t8.47-.2Z"/><path class="cls-1" d="M367.73,141.71q2.55,1.53,4.64,2.86t3.93,2.55c1.23.81,2.38,1.65,3.47,2.5s2.21,1.78,3.37,2.8A5.34,5.34,0,0,1,385,156.2a9.81,9.81,0,0,1-.82,4.54,18.22,18.22,0,0,1-2.7,4.44,18.64,18.64,0,0,1-3.68,3.52,10.36,10.36,0,0,1-3.87,1.79,3.64,3.64,0,0,1-3.27-.72c-2-1.69-4.05-3.45-6.23-5.25s-4.93-4-8.26-6.59a3.21,3.21,0,0,1-1.23-2.75,10.73,10.73,0,0,1,.82-3.93,20.78,20.78,0,0,1,5.36-7.66,10.63,10.63,0,0,1,3.42-2.09A3.62,3.62,0,0,1,367.73,141.71Zm66.14,68.38a2.21,2.21,0,0,1,2.09,1.58,7.54,7.54,0,0,1-.61,6.79,3,3,0,0,1-2.6,1.53q-6.33-.21-13.58-.71T404.58,218q-7.35-.82-14.24-1.79t-12.4-2.09a37.89,37.89,0,0,1-2.05,4.39c-.4.82-1.34,1.26-2.8,1.33a13.22,13.22,0,0,1-4.39-.56,9.56,9.56,0,0,1-3.62-1.94,2,2,0,0,1-.62-2.71c.62-1.22,1.38-2.82,2.3-4.79s1.82-4.1,2.7-6.38,1.74-4.58,2.56-6.89,1.46-4.43,1.94-6.33a23,23,0,0,0,.76-4.65c0-1.18-.25-1.78-.87-1.78a17,17,0,0,0-1.94.15,21.84,21.84,0,0,0-2.65.51c-.95.24-1.92.51-2.91.82l-2.8.87c-.75.27-1.47-.06-2.15-1a9.08,9.08,0,0,1-1.48-3.27,9.76,9.76,0,0,1-.2-3.67,2.38,2.38,0,0,1,1.68-2.2c3.06-.75,6.06-1.43,9-2a51.34,51.34,0,0,1,9.39-1,5.05,5.05,0,0,1,1.59.35,7.06,7.06,0,0,1,1.88,1.08,5.74,5.74,0,0,1,1.53,1.78,4.56,4.56,0,0,1,.62,2.3A105.81,105.81,0,0,1,384.06,191,116.08,116.08,0,0,1,381,204.78q4.89.93,11.89,1.79t14.44,1.58q7.46.72,14.44,1.28C426.43,209.8,430.47,210,433.87,210.09Zm-43.18-20.82a2.39,2.39,0,0,1-2.34-1.17,6.83,6.83,0,0,1-.51-6.08,2.51,2.51,0,0,1,2-1.63q2.65-.4,6.94-.72c2.86-.2,5.95-.4,9.29-.61.2-1.7.4-3.3.61-4.8s.37-3,.51-4.49l-7.65.51-.52,3.58a3,3,0,0,1-2.14,2.7,9,9,0,0,1-4.18.36,8.41,8.41,0,0,1-3.93-1.53,3.07,3.07,0,0,1-1.38-3.17c.41-2,.76-3.75,1.07-5.15s.6-2.74.87-4,.58-2.64.92-4,.78-3.12,1.32-5.16a3.34,3.34,0,0,1,2.35-2.5,7.73,7.73,0,0,1,3.83-.15,7.06,7.06,0,0,1,3.37,1.63,2.62,2.62,0,0,1,1,2.76l-1,5.41c1.08-.14,2.21-.22,3.36-.26s2.35-.08,3.58-.15q.09-1.43.15-2.7c0-.86.05-1.76.05-2.71a2.73,2.73,0,0,1,1.53-2.5,7.18,7.18,0,0,1,6.64-.21,2.88,2.88,0,0,1,1.73,2.2l.51,5.51c2-.07,3.88-.1,5.72-.1h4.79a2.66,2.66,0,0,1,2.4,1.48,6.32,6.32,0,0,1,.87,3.26,5.56,5.56,0,0,1-1,3.22,3.31,3.31,0,0,1-3.11,1.33q-4.39-.21-9.19,0c.07,1.49.12,3,.15,4.49s.06,3,.06,4.49c2.85-.14,5.51-.21,8-.21s4.52,0,6.22.11a2.9,2.9,0,0,1,2.4,1.68,7,7,0,0,1,.87,3.42,6.45,6.45,0,0,1-.87,3.32,2.84,2.84,0,0,1-2.81,1.38c-1.36,0-2.8,0-4.33-.06s-3.15,0-4.85.06a28.34,28.34,0,0,0-.05,5.66,4,4,0,0,0,1.32,2.86,3.54,3.54,0,0,0,3.12.15,27.64,27.64,0,0,0,5.3-2.45,1.87,1.87,0,0,1,2,.26,5.75,5.75,0,0,1,1.83,2.09,5.9,5.9,0,0,1,.72,2.86,3,3,0,0,1-1.43,2.55,27.82,27.82,0,0,1-9.29,4.69,10.59,10.59,0,0,1-7.5-.41q-3.12-1.53-4.75-6t-1-12.09h-1.84a16,16,0,0,0-1.83.1l-.31.72c-1.22,2.38-2.5,4.89-3.83,7.55s-2.5,5.07-3.52,7.25a3.45,3.45,0,0,1-3,2.09,8.21,8.21,0,0,1-4.13-.56,6.37,6.37,0,0,1-3.11-2.66,4.08,4.08,0,0,1,.2-4.28q1-2,2.55-4.65t3-4.95c-1.43.14-2.79.22-4.08.26S391.85,189.2,390.69,189.27Z"/><path class="cls-1" d="M472.45,153.34a2.36,2.36,0,0,1,1-2.5,6,6,0,0,1,3-1.17,6.58,6.58,0,0,1,3.32.46,3.51,3.51,0,0,1,2.14,2.29,29.94,29.94,0,0,1,.72,3c.2,1.09.37,2.25.51,3.47a40.17,40.17,0,0,1,4.54.06c1.46.1,2.94.22,4.44.35a3.56,3.56,0,0,1,2.34,1.74,12.11,12.11,0,0,1,1.59,3.82,28,28,0,0,1,.71,5,23.52,23.52,0,0,1-.2,4.9,11.2,11.2,0,0,1-1.23,3.78,2.82,2.82,0,0,1-2.29,1.63c-1.43.14-2.81.24-4.14.31s-2.64.17-3.93.31c.14,1.76.21,3.5.21,5.2s0,3.37.1,5l6.63-2.14a2.08,2.08,0,0,1,2.25.61,5.62,5.62,0,0,1,1.43,2.55,6.54,6.54,0,0,1,.1,3,2.79,2.79,0,0,1-1.84,2.1L490,198.46c-1.47.54-3.08,1.09-4.85,1.63-.07,2.59-.16,4.93-.26,7s-.22,3.85-.36,5.21a3.53,3.53,0,0,1-2.29,3.06,10.59,10.59,0,0,1-4.49.87,10.06,10.06,0,0,1-4.19-.92c-1.19-.58-1.68-1.34-1.48-2.3s.41-2.31.62-3.88.37-3.33.51-5.3c-3.14.88-5.31,1.42-6.54,1.63a3.05,3.05,0,0,1-3-1,5.62,5.62,0,0,1-1.27-3.06,7,7,0,0,1,.4-3.37,2.53,2.53,0,0,1,2.05-1.79c.88-.13,2.1-.37,3.67-.71s3.33-.78,5.31-1.33c.06-2,.12-3.94.15-5.92s.05-4,.05-6q-3,.51-6,1.17T461.43,185a2.57,2.57,0,0,1-2.61-1.12,11.53,11.53,0,0,1-1.93-3.78,27.19,27.19,0,0,1-1.13-5.25,23.25,23.25,0,0,1-.05-5.52,13.13,13.13,0,0,1,1.33-4.54,4.61,4.61,0,0,1,2.86-2.45q3.25-.81,6.63-1.53c2.25-.47,4.49-.88,6.74-1.22-.14-1.29-.28-2.47-.41-3.52S472.59,154.09,472.45,153.34Zm40.11,32.87c0-.89.6-1.57,1.79-2a11.27,11.27,0,0,1,3.93-.77,11,11,0,0,1,4,.61c1.22.45,1.87,1.14,1.94,2.1a8.71,8.71,0,0,0,0,1c0,.34,0,.68,0,1q4.69.1,8.42.25a44.6,44.6,0,0,1,5.36.46,2.49,2.49,0,0,1,1.74,1.74,7.91,7.91,0,0,1,.4,3.11,7.38,7.38,0,0,1-.76,3,2,2,0,0,1-1.69,1.27c-.95-.06-2.62-.1-5-.1h-8c.07.82.12,1.64.15,2.45s.06,1.63.06,2.45q5.61,0,10.56.11t7.6.3c.62.07,1.09.53,1.43,1.38a6.3,6.3,0,0,1,.41,2.81,7.34,7.34,0,0,1-.71,2.75,2,2,0,0,1-1.84,1.23c-1.36,0-3.62,0-6.79.05s-6.68.08-10.56.15c0,.75,0,1.5,0,2.25s-.05,1.46-.05,2.14a2.62,2.62,0,0,1-1.18,2,6.68,6.68,0,0,1-2.7,1.07,16.24,16.24,0,0,1-3.47.26,15.79,15.79,0,0,1-3.42-.46,6.87,6.87,0,0,1-2.55-1.18,2.05,2.05,0,0,1-.87-1.89l.41-3.87c-3.47.13-6.61.24-9.39.3s-4.87.17-6.23.31a2,2,0,0,1-2-1.23,7.11,7.11,0,0,1-.82-3,8.07,8.07,0,0,1,.41-3.16,2,2,0,0,1,1.73-1.58q2.06-.21,6.64-.31t10.41-.3l.31-4.91q-4.29.1-7.66.16t-4.8.15c-.54.07-1-.37-1.42-1.33a10.22,10.22,0,0,1-.77-3.21,7.9,7.9,0,0,1,.41-3.37,2.4,2.4,0,0,1,2-1.78,37.2,37.2,0,0,1,4.54-.31q3.42-.1,8-.2Zm-9.69-21.54a3.51,3.51,0,0,1-3-.25,5.68,5.68,0,0,1-2-2.2,9.38,9.38,0,0,1-1-3.21,9.6,9.6,0,0,1,.1-3.47,6.56,6.56,0,0,1,1.38-2.91A3.94,3.94,0,0,1,501,151.2q2.76-.31,7.45-.66t9.59-.62q4.9-.25,9.19-.25a43,43,0,0,1,6.12.3,7.88,7.88,0,0,1,3.73,1.79,9.7,9.7,0,0,1,2.45,3.27,12.28,12.28,0,0,1,1.07,3.88,7.83,7.83,0,0,1-.41,3.62,17,17,0,0,1-4,6.07,40.9,40.9,0,0,1-6.58,5.26c2.72.81,5.17,1.6,7.35,2.35a53,53,0,0,1,5,1.93,2.34,2.34,0,0,1,1.48,2.25,6.83,6.83,0,0,1-.72,3.21,7.18,7.18,0,0,1-2.09,2.61,2.27,2.27,0,0,1-2.55.4c-.82-.33-1.91-.76-3.27-1.27s-2.89-1.07-4.59-1.68-3.54-1.26-5.51-1.94l-6-2.05q-5.52,2.36-11.08,4.14t-10.15,2.8a1.86,1.86,0,0,1-1.94-.5,5.15,5.15,0,0,1-1.23-2,4.31,4.31,0,0,1-.2-2.25,1.66,1.66,0,0,1,1.12-1.38q2.76-.81,6.07-1.84c2.22-.67,4.48-1.49,6.79-2.44l-7.76-2.46a2,2,0,0,1-1.42-1.78,5.65,5.65,0,0,1,.35-2.86,6.64,6.64,0,0,1,1.64-2.5,2.43,2.43,0,0,1,2.5-.61l16.43,4.8a27.41,27.41,0,0,0,5.82-4.39A3.93,3.93,0,0,0,526.7,163a1.86,1.86,0,0,0-2-1.63c-1,0-2.42.1-4.39.3s-4.08.48-6.33.82-4.39.7-6.43,1.07A43.27,43.27,0,0,0,502.87,164.67Z"/><path class="cls-1" d="M628.31,210.29a2.63,2.63,0,0,1,1.78,2.35,8.39,8.39,0,0,1-.35,3.73,7.56,7.56,0,0,1-1.94,3.16,3,3,0,0,1-3.07.77q-1.93-.62-5.1-1.43l-7-1.79q-3.82-1-8.17-2l-8.62-2-1.94,5.51a3.23,3.23,0,0,1-2.86,2.2,10.25,10.25,0,0,1-7.91-2.56,2.34,2.34,0,0,1-.76-2.9l1.94-4.9-9.6-2.15a2.62,2.62,0,0,1-2.09-2.24,8.61,8.61,0,0,1,.15-3.83,8.08,8.08,0,0,1,1.79-3.42,3,3,0,0,1,2.91-1.12L588.19,200l.82-2.35c-1.84-.14-3.56-.32-5.15-.56s-3-.49-4.24-.77a5.49,5.49,0,0,1-3.57-2.5,16.28,16.28,0,0,1-2.2-4.95,25.08,25.08,0,0,1-.81-6.17,29.56,29.56,0,0,1,.51-6.23,18.75,18.75,0,0,1,1.73-5.16,5.88,5.88,0,0,1,3-3,22.28,22.28,0,0,1,3.88-1.08c1.57-.3,3.3-.56,5.21-.76s3.93-.38,6.07-.51,4.34-.21,6.58-.21a13.86,13.86,0,0,0,.72-2q-5.21.21-10.16.51t-10,.82a3,3,0,0,1-2.55-1.28,10.4,10.4,0,0,1-1.79-3.47,17.8,17.8,0,0,1-.76-4.64,18.25,18.25,0,0,1,.41-4.8,9.3,9.3,0,0,1,1.73-3.77,4.63,4.63,0,0,1,3.27-1.74q4.18-.3,9.34-.56c3.43-.17,7-.31,10.66-.41s7.37-.13,11.08-.1,7.19.19,10.46.46a4.34,4.34,0,0,1,3.11,1.73,9.67,9.67,0,0,1,1.69,3.68,15.3,15.3,0,0,1,.35,4.59,18.87,18.87,0,0,1-.81,4.54,9.39,9.39,0,0,1-1.89,3.47,3.41,3.41,0,0,1-2.86,1.28c-1.9-.14-3.78-.22-5.61-.26s-3.71-.08-5.62-.15l-.61,2.45a68.21,68.21,0,0,1,7.4.92,20.31,20.31,0,0,1,5.16,1.53,8.77,8.77,0,0,1,3.52,3.57,18.7,18.7,0,0,1,2,5.36,25.71,25.71,0,0,1,.51,6.07,24.49,24.49,0,0,1-.87,5.87,15.92,15.92,0,0,1-2.09,4.65,5.23,5.23,0,0,1-3.17,2.34,63.77,63.77,0,0,1-9.79,1.38q-5.92.47-12.25.36l-1.43,4.49q4.29,1,8.62,2.09t8.22,2.1q3.87,1,7,1.93ZM587,174.88a3.72,3.72,0,0,0-2.65,2.65c1.63,0,3.45,0,5.46-.05s4.13-.08,6.38-.15l1.22-3.58q-3.46.21-6.23.47A23.77,23.77,0,0,0,587,174.88Zm5.31,13.47,1.12-3.16h-4.85c-1.53,0-2.94,0-4.23-.11a4.26,4.26,0,0,0,3.16,2.66Zm24.8-.61a3.25,3.25,0,0,0,2.09-1.13,5.2,5.2,0,0,0,1.07-2.24q-2.44.21-6.58.31c-2.75.06-5.77.17-9,.3l-1,3.68c2.65-.07,5.18-.15,7.6-.26A33.71,33.71,0,0,0,617.08,187.74Zm.41-12.55a16.23,16.23,0,0,0-3.83-.82q-2.5-.31-5.66-.51l-.92,3.06,6.53-.36c2-.1,3.67-.22,5.1-.35a8,8,0,0,0-.61-.57A6,6,0,0,0,617.49,175.19Z"/><path class="cls-1" d="M675.16,166.2q4-4.08,7-7.09c2-2,4.06-3.91,6.07-5.72s4.08-3.6,6.23-5.41,4.64-3.86,7.5-6.17a5.51,5.51,0,0,1,3.72-1.28,10.34,10.34,0,0,1,4.14,1,14.84,14.84,0,0,1,3.83,2.66,15.52,15.52,0,0,1,2.85,3.52,8.11,8.11,0,0,1,1.18,3.67,3.86,3.86,0,0,1-1.12,3.06l-5.82,5.62c1.36-.2,2.62-.37,3.77-.51s2.25-.24,3.27-.31a6.39,6.39,0,0,1,4.24,1.33,10.64,10.64,0,0,1,3,3.57,11.86,11.86,0,0,1,1.32,4.49,6.26,6.26,0,0,1-.81,4,23,23,0,0,1-4.7,5,65.44,65.44,0,0,1-8.27,5.92,87.65,87.65,0,0,1-10.51,5.52,56.68,56.68,0,0,1-11.53,3.77,2.2,2.2,0,0,1-2.25-.66,4.88,4.88,0,0,1-1.22-2.25,5,5,0,0,1,0-2.5,1.92,1.92,0,0,1,1.32-1.53q2.76-.81,6-2.09T701,180.9c-.82-.82-1.63-1.6-2.45-2.35s-1.74-1.56-2.76-2.45l-4.08,4.7a3.8,3.8,0,0,1-3.27,1.22,13.11,13.11,0,0,1-4.54-1.12,20.74,20.74,0,0,1-4.69-2.81,17.68,17.68,0,0,1-3.73-3.83,9.55,9.55,0,0,1-1.73-4.18A4.39,4.39,0,0,1,675.16,166.2Zm26.94,39.3a1.45,1.45,0,0,1-.71-.92l-3.47,2.65a3.1,3.1,0,0,1-3.27.21,9.25,9.25,0,0,1-3.21-2.4,6.94,6.94,0,0,1-1.69-3.42,2.78,2.78,0,0,1,1.43-3q2.25-1.42,5.31-3.32l6.33-3.88q3.25-2,6.32-3.77c2.05-1.19,3.81-2.2,5.31-3a2.71,2.71,0,0,1,2.91,0,7.35,7.35,0,0,1,2.3,2.34,7.06,7.06,0,0,1,1.07,3,2,2,0,0,1-.87,2.14l-2.65,1.63c2.45-.2,4.62-.3,6.53-.3a5.4,5.4,0,0,1,3.73,1.42,9.94,9.94,0,0,1,2.45,3.48,10.71,10.71,0,0,1,.86,4.18,6,6,0,0,1-1,3.57,20.86,20.86,0,0,1-4.54,4.19,56.9,56.9,0,0,1-7.91,4.79,85.29,85.29,0,0,1-9.95,4.29,51.68,51.68,0,0,1-10.77,2.66,2.07,2.07,0,0,1-2-.77,5.32,5.32,0,0,1-1.12-2.19,4.81,4.81,0,0,1,0-2.35,1.55,1.55,0,0,1,1.17-1.33,64.83,64.83,0,0,0,6.63-1.79c2.45-.78,4.87-1.64,7.25-2.6-.95-1-1.91-1.84-2.86-2.65Zm.1-36.64q1.95,1.53,3.93,3.26t3.73,3.47a17.1,17.1,0,0,0,4.39-3.88,2.87,2.87,0,0,0,.61-1.78,3.28,3.28,0,0,0-.46-1.74,3.48,3.48,0,0,0-1.22-1.22,2.61,2.61,0,0,0-1.69-.36c-1,.14-2.28.34-3.77.61s-3.17.62-5,1A2.59,2.59,0,0,1,702.2,168.86Zm14.19,38.27a12.6,12.6,0,0,0,3.16-2.55,2.63,2.63,0,0,0,.67-1.53,3.22,3.22,0,0,0-.31-1.58,3.07,3.07,0,0,0-1-1.23,2.5,2.5,0,0,0-1.48-.46q-1.42.1-3.42.36t-4.44.66c1.16,1,2.31,1.93,3.47,2.91a40,40,0,0,1,3.17,3Z"/><path class="cls-1" d="M783.24,210.4a1.88,1.88,0,0,1-1.93-1,7.66,7.66,0,0,1-1.13-2.86,7.8,7.8,0,0,1,.05-3.16,2.22,2.22,0,0,1,1.79-1.84c1.16-.27,2.72-.56,4.69-.87s4.26-.63,6.84-1a70.35,70.35,0,0,1,1.13-8.47,34.73,34.73,0,0,1,2.14-7.25c.68-1.56,2.43-2.74,5.26-3.52a46.78,46.78,0,0,1,9.74-1.48V172c-2.17.14-4.25.25-6.22.36s-3.64.22-5,.35c-1.57,2.73-3.17,5.63-4.8,8.73s-3.54,6.69-5.72,10.77a3.78,3.78,0,0,1-3,2,11.86,11.86,0,0,1-4.85-.31,21.43,21.43,0,0,1-5.3-2.14,21.1,21.1,0,0,1-4.6-3.42,10.5,10.5,0,0,1-2.65-4.13,5.23,5.23,0,0,1,.61-4.44q3.48-6,6.43-10.72t5.77-8.73q2.81-4,5.77-7.91t6.53-8.16a5.46,5.46,0,0,1,3.57-2,10.44,10.44,0,0,1,4.44.35,16.06,16.06,0,0,1,4.49,2.15,16.25,16.25,0,0,1,3.63,3.26,9.42,9.42,0,0,1,1.88,3.68,3.93,3.93,0,0,1-.66,3.42c-1.22,1.7-2.35,3.3-3.37,4.8s-2,2.92-3,4.28l6.89-.2q3.72-.11,7.2-.1c2.31,0,4.44,0,6.38,0a42.49,42.49,0,0,1,4.44.25,2.17,2.17,0,0,1,1.63,1.38,5.68,5.68,0,0,1,.46,2.5,5.1,5.1,0,0,1-.72,2.45,2,2,0,0,1-1.78,1.12h-4.14c-1.73,0-3.65,0-5.76.1.06,1,.13,2.13.2,3.32s.14,2.47.21,3.83c1.76.07,3.47.17,5.1.31s3.13.27,4.49.4a1.65,1.65,0,0,1,1.48,1.38,7.9,7.9,0,0,1-.56,5.41c-.41.78-.85,1.14-1.33,1.07-1.29-.13-2.7-.24-4.23-.3S822.64,187,821,187q.11,2.35.15,4.8c0,1.63.05,3.27.05,4.9q5.92-.51,10.57-.82a67.28,67.28,0,0,1,6.79-.2,2.66,2.66,0,0,1,2.29,1.63,7.45,7.45,0,0,1,.77,3.37A7.94,7.94,0,0,1,841,204c-.44,1-1,1.48-1.78,1.48q-2.65-.1-7.35.05c-3.13.1-6.64.29-10.51.56q.09,3.27,0,6.12c0,1.91,0,3.54,0,4.9a3.19,3.19,0,0,1-1.94,2.91,9.19,9.19,0,0,1-4,.87,8.59,8.59,0,0,1-3.83-.82c-1.12-.54-1.62-1.29-1.48-2.24.13-1.23.27-2.77.41-4.65s.27-4,.41-6.27q-7.67.7-15,1.58T783.24,210.4Zm23.17-20.21c-.4,1.29-.75,2.57-1,3.83a35.25,35.25,0,0,0-.61,4.33c1.09-.13,2.16-.25,3.22-.35l3.31-.36.31-10a16.11,16.11,0,0,0-3.52,1A2.85,2.85,0,0,0,806.41,190.19Z"/><path class="cls-1" d="M920.83,194.07a2,2,0,0,1,1.58,1.43,5.94,5.94,0,0,1,.36,2.6,6.74,6.74,0,0,1-.66,2.5,1.68,1.68,0,0,1-1.48,1.12c-1.91-.06-4.22-.1-6.94-.1s-5.51.07-8.37.2c.27,1.77.52,3.42.76,5s.5,2.95.77,4.24a2.62,2.62,0,0,1-1.48,2.6A13.79,13.79,0,0,1,901,215.3a28.38,28.38,0,0,1-5.87.66,39.32,39.32,0,0,1-6.07-.36,17.54,17.54,0,0,1-4.85-1.32,3.64,3.64,0,0,1-2.3-2.35q-.41-1.74-.86-5.26c-.31-2.35-.58-5-.82-8.06s-.41-6.24-.51-9.65a98.56,98.56,0,0,1,.2-10.05,74.9,74.9,0,0,1,1.23-9.29,25.56,25.56,0,0,1,2.5-7.3,10.9,10.9,0,0,1,5.36-4.59,36.29,36.29,0,0,1,8.83-2.6,61.26,61.26,0,0,1,10.51-.87,59.58,59.58,0,0,1,10.41.87,42,42,0,0,1,8.62,2.4,10.68,10.68,0,0,1,5.16,3.77,22.73,22.73,0,0,1,2.65,6.38,57.64,57.64,0,0,1,1.53,8.32c.34,3,.57,6.14.67,9.44s.08,6.53,0,9.7-.35,6.21-.62,9.13-.57,5.52-.91,7.76a4,4,0,0,1-2.66,2.76,10.43,10.43,0,0,1-4.18.56,8.71,8.71,0,0,1-3.73-1.07c-1-.62-1.51-1.33-1.38-2.15q1-4.89,1.69-10.82c.44-3.94.75-7.86.92-11.73s.18-7.52,0-10.93a53.08,53.08,0,0,0-.92-8.47,4.9,4.9,0,0,0-1.89-2.75,10.89,10.89,0,0,0-3.62-1.74,21.31,21.31,0,0,0-4.55-.76,18.85,18.85,0,0,0-4.49.2,12.13,12.13,0,0,0-3.62,1.17,3.33,3.33,0,0,0-1.84,2.15,27.18,27.18,0,0,0-.76,3.82c-.17,1.33-.33,2.68-.46,4,3-.07,6-.05,9,.05a53.53,53.53,0,0,1,7.35.66,2,2,0,0,1,1.58,1.43,6,6,0,0,1,.36,2.6,6.69,6.69,0,0,1-.66,2.5,1.69,1.69,0,0,1-1.48,1.13c-2-.07-4.56-.11-7.56-.11s-6,.07-8.88.21c0,1.43,0,2.87.1,4.34s.17,2.87.31,4.23c2.93,0,5.9.05,8.93.16A68.51,68.51,0,0,1,920.83,194.07Z"/><path class="cls-1" d="M126.58,81.93c-1.52-4.08-6.32-5.7-10.56-6.67-3-.69-6.17-1.3-9-.23-4,1.51-6.16,5.8-7.5,9.86s-2.14,8.79.19,12.36c2.06,3.15,6,4.48,9.77,4.84A28.63,28.63,0,0,0,121,100.8a19.73,19.73,0,0,0,8.19-4.88c4.44-4.65,5.44-11.63,5.05-18"/><path class="cls-2" d="M129.17,80.41c-3.5-7.31-16.46-11.11-23.7-8C97.3,76,92.39,90.28,96.71,98.07c5,9,18.8,8.24,27,4.92,10.61-4.29,14-14.37,13.57-25.12-.16-3.85-6.16-3.87-6,0,.27,6.34-.46,13.46-6,17.53-5.15,3.79-14.28,5.38-20.16,2.51-6.62-3.24-3.73-15.28,1.33-19.06,4.48-3.34,15.15-.41,17.54,4.59,1.66,3.48,6.84.44,5.18-3Z"/><path class="cls-2" d="M96.64,58.39C96.67,49,89.9,42.64,83,37.22c-3-2.36-7.28,1.86-4.24,4.24,5.51,4.32,11.91,9.26,11.89,16.93,0,3.86,6,3.87,6,0Z"/><path class="cls-2" d="M69.83,76.21l-18.76-2c-3.83-.42-3.8,5.58,0,6l18.76,2c3.84.42,3.81-5.59,0-6Z"/><path class="cls-2" d="M80.28,100.69a89.27,89.27,0,0,0-13.65,8.85c-3,2.37,1.23,6.59,4.24,4.24a81.52,81.52,0,0,1,12.44-7.91c3.42-1.79.39-7-3-5.18Z"/><path class="cls-2" d="M114.65,119q-.65,7.36-.58,14.77c0,3.86,6,3.87,6,0q-.06-7.4.58-14.77c.34-3.85-5.66-3.83-6,0Z"/><path class="cls-2" d="M145.64,111.12c3.14.91,6.22,1.94,9.26,3.12a3,3,0,0,0,3.69-2.1,3.07,3.07,0,0,0-2.09-3.69q-4.56-1.76-9.26-3.11c-3.72-1.07-5.31,4.72-1.6,5.78Z"/><path class="cls-2" d="M179.32,66.64a231.84,231.84,0,0,1-30.49,5.46c-3.8.41-3.84,6.42,0,6a245.33,245.33,0,0,0,32.08-5.67c3.75-.93,2.16-6.72-1.59-5.79Z"/><path class="cls-2" d="M125.15,53.24l1.5-5.68c1-3.74-4.79-5.33-5.78-1.6l-1.5,5.69c-1,3.74,4.8,5.33,5.78,1.59Z"/><path class="cls-1" d="M89.73,119.73c3.85,7.18,9.5,11.59,9.74,19.74.09,3.11,8.64,6.89,9,10,.84,6.94-7.83,16.24-4.16,22.19,2.34,3.81,4.84,8.37,3.12,12.5-2.53,6.09-12.1,6.24-15.1,12.11-.66,1.29-.93,2.75-1.55,4.06-1.78,3.73-6,5.53-10,6.74-13.26,4.06-28.55,4.79-40.19-2.77a64.18,64.18,0,0,1-9.12-7.68l-9.17-8.8a42,42,0,0,1-6.66-7.5,14.12,14.12,0,0,1-2.41-9.54c.5-3.29,2.52-6.13,3.77-9.23,2.21-5.47,2-11.66,3.92-17.24,1.54-4.43,4.4-8.27,7.22-12s5.66-7.53,9.57-10.06c5.42-3.5,12.14-4.14,18.57-4.68,11.7-1,24-1.88,34.74,2.73"/><path class="cls-2" d="M87.14,121.24c2.22,3.93,5.19,7.38,7.32,11.34,1.77,3.32,1.21,7.33,3.35,10.34,1.8,2.52,5,3.66,6.82,6.06,2.1,2.76-.52,7.07-1.69,10s-2.53,6-2.51,9.29c0,4.79,4.63,8,4.58,12.75-.06,4.33-4.85,5.8-8,7.48-2.88,1.53-5.67,3.32-7.26,6.27-1,1.81-1.23,4.07-2.6,5.67-1.6,1.87-4.23,2.81-6.47,3.55a61.67,61.67,0,0,1-15.75,3c-10.71.57-20.2-2.35-28.19-9.58-3.75-3.39-7.34-7-11-10.46-4.35-4.18-10.3-9.06-9.43-15.76.62-4.74,4.05-9.12,5.05-13.93,1.24-6,1.59-11.58,4.83-17a60.61,60.61,0,0,1,10.62-13.58c4.75-4.27,10.9-5.37,17.06-6,12.18-1.17,24.76-2.23,36.37,2.4,3.58,1.43,5.14-4.37,1.59-5.78-11.84-4.73-24.71-3.85-37.15-2.7-11.58,1.07-20,4.23-27.24,13.6-3.65,4.7-7.43,9.54-9.41,15.22-2.24,6.47-2.15,13.24-5,19.56-2.34,5.14-3.83,9.49-1.78,15,2,5.33,6.29,9.24,10.28,13.08,8.52,8.19,16.56,17.26,28.39,20.39,10.66,2.83,22.69,1.53,33-2,4.19-1.46,8.31-3.61,10.44-7.7,1.08-2.09,1.26-4.26,3.06-6s4.12-2.44,6.16-3.51c3.25-1.7,6.4-3.82,7.73-7.41,2.13-5.74-1.53-9.8-3.42-14.81-3.15-8.33,10-17.44,2-25.39-1.53-1.51-3.52-2.56-5-4.11-1.86-2-1.47-3.89-2.25-6.45-1.81-6-6.29-10.63-9.31-16-1.9-3.37-7.08-.35-5.18,3Z"/><path class="cls-1" d="M90.05,204c-.59,4.16-2.13,4.56-4.53,8.58-1.85,3.1-4,6.19-7.21,7.89s-6.68,1.82-10.12,1.45c-7.9-.87-15.26-4.42-22.06-8.53S6.2,192.9,3.69,186.1c-1.36-3.7-.8-12.95,2.48-17.47,1.83-2.54,8.22-5.38,10.83-5.55"/><path class="cls-2" d="M87.16,203.18c-.56,3-2.19,4.73-3.8,7.19-2.38,3.65-4.48,7.31-9.07,8.38-7.35,1.7-15.87-2.05-22.2-5.43-7.28-3.89-14.49-8-21.7-12-7.43-4.14-15.83-8.23-22-14.13-3-2.84-2.66-6.83-2-10.72,1.11-6.13,5.23-9.63,11.42-10.49,3.81-.53,2.18-6.31-1.6-5.78C5.2,161.72,0,170.48,0,180.93c0,8.11,5.06,11.78,11.34,16,7.86,5.26,16.25,9.74,24.56,14.24,8.82,4.77,17.42,10.67,27.31,12.91,6.74,1.53,14.3,1.66,19.72-3.26,2.54-2.31,4.15-5.28,6-8.09s3.36-4.7,4-7.94c.72-3.78-5.07-5.39-5.79-1.6Z"/><path class="cls-1" d="M59.93,111c-2-7-15-5.85-21-2a33.22,33.22,0,0,0-7,6c-5.82,6.94-9.94,12.19-12,21-.79,3.43-2.95,19.59-3,24,0,2.43,2,11,4,13"/><path class="cls-2" d="M62.82,110.22c-3-8.19-13.33-8.3-20.48-6-10,3.22-18.16,13.75-22.46,22.93-3.74,8-4.39,17.21-5.33,25.86-.8,7.4-.64,16.08,4.34,22.16,2.45,3,6.67-1.27,4.24-4.24-3.41-4.17-3.25-11.26-2.75-16.28a148.25,148.25,0,0,1,2.48-17.8c1.95-8.66,7.74-17.21,14.48-22.93a19.83,19.83,0,0,1,10.79-4.86c2.78-.33,7.71-.47,8.91,2.74,1.33,3.58,7.13,2,5.78-1.6Z"/><path class="cls-3" d="M60.72,169.47a29.58,29.58,0,0,0-1.29,14.66c.29,1.9,3.18,1.1,2.89-.8a26.62,26.62,0,0,1,1.29-13.06c.64-1.83-2.25-2.61-2.89-.8Z"/><path class="cls-1" d="M73.5,161.19a43.75,43.75,0,0,0-10.32,20.89"/><path class="cls-2" d="M71.38,159.07a48.72,48.72,0,0,0-11.1,22.21c-.78,3.77,5,5.38,5.79,1.6a42.58,42.58,0,0,1,9.55-19.57c2.51-2.91-1.71-7.17-4.24-4.24Z"/><path class="cls-3" d="M47.74,158.68c-3.22,1.64-4.65,6.21-4.88,9.53-.13,1.92,2.87,1.92,3,0,.16-2.3,1.15-5.79,3.39-6.94,1.72-.87.21-3.46-1.51-2.59Z"/><path class="cls-1" d="M55,154.9c-2.76,1.2-6.42,7.32-6.68,13.3"/><path class="cls-2" d="M53.53,152.31c-5.39,2.75-7.78,10.33-8.17,15.89-.26,3.86,5.74,3.84,6,0,.25-3.51,1.76-9,5.19-10.71s.41-6.93-3-5.18Z"/><path class="cls-3" d="M33.91,145.5c-3.38,2.17-4.39,5.64-4.06,9.51.17,1.91,3.17,1.93,3,0-.24-2.75.09-5.33,2.57-6.92,1.62-1,.12-3.63-1.51-2.59Z"/><path class="cls-1" d="M37.66,144.79c-2.52,1.54-3.74,4-3.31,8.22"/><path class="cls-2" d="M36.15,142.2c-3.82,2.45-5.18,6.4-4.8,10.81a3.08,3.08,0,0,0,3,3,3,3,0,0,0,3-3c-.2-2.31-.1-4.39,1.83-5.63,3.24-2.07.23-7.27-3-5.18Z"/><path class="cls-1" d="M81.94,121a30.92,30.92,0,0,0-5.45-8.87c-2.5-2.49-9.56-3.11-13-1.18a17.16,17.16,0,0,0-4.24,3.55c-5.33,5.83-10.2,10.15-12.68,20.14"/><path class="cls-2" d="M84.84,120.19c-3.51-9-10.8-16.31-21.22-12.57-4.87,1.75-8.68,6.83-11.89,10.67a40.07,40.07,0,0,0-8.06,15.54c-1,3.73,4.77,5.32,5.78,1.6,2.14-7.87,6.92-14.33,12.87-19.83,2.81-2.6,7.07-3.88,10.77-2.1,2.87,1.39,4.84,5.43,6,8.29,1.39,3.56,7.19,2,5.79-1.6Z"/><path class="cls-1" d="M104,142c6-2,12.7,5.52,14,9,8.53,22.49-10.84,47.67-18.43,50.53-8,3-4.28,2.94-19,1"/><path class="cls-2" d="M104.77,144.85c3.94-.93,8.07,2.94,9.89,6.14,2.21,3.89,2.59,9,2.41,13.43-.36,8.67-3.88,17.09-8.69,24.22-3.22,4.77-6.84,8.83-12.22,11-5.2,2.05-10.13.61-15.61-.11-3.81-.5-3.78,5.5,0,6,7.85,1,13.27,2,20.52-1.43,7-3.36,12.22-11.14,15.73-17.81,5.11-9.68,7.85-21,5.36-31.86-1.91-8.34-9.49-17.57-19-15.32-3.75.89-2.16,6.67,1.6,5.78Z"/><path class="cls-1" d="M101,148c2.5,2.5,4,5,4,7,0,4.12-3,4-4.67,2.31C99.07,156,96,150,98.51,145.86c1.23-2,16.32-30.58,17.76-33.82,3.6-8.13-.12-18.46-3.87-20.59-7.27-4.14-17.28,6.47-23,15A132.77,132.77,0,0,0,75,135.58"/><path class="cls-2" d="M98.86,150.09a15.65,15.65,0,0,1,1.82,2.16A22,22,0,0,0,102,155c.85.8-.29-1-.36-1.17-.9-2.61-1.33-4.46-.15-7.07s2.74-5.06,4.08-7.57c3.92-7.38,7.84-14.76,11.62-22.21,4-7.8,5.16-17,.06-24.72-6.33-9.55-17.62-2.22-23.42,3.89-10,10.58-17,25-21.69,38.67-1.24,3.66,4.55,5.24,5.79,1.59,4.48-13.23,11.51-27.86,21.75-37.63,2.09-2,5.17-4.79,8.23-5.13,3.74-.42,5.24,2.9,6.12,6,1.42,5,.4,9.53-1.87,14-3.9,7.69-7.94,15.31-12,22.92-3.49,6.55-7.64,12.18-3.94,19.79,1.68,3.44,5.75,6.92,9.55,4,5.18-4,.51-11.06-2.67-14.46-2.64-2.82-6.88,1.43-4.24,4.25Z"/><path class="cls-3" d="M6.45,173.07a2.14,2.14,0,0,0-3.24.77,17.17,17.17,0,0,0-.52,12.27c2.51,6.79,35.64,23.15,42.44,27.26,7.21,4.36,15,8.09,23.5,8.65a17.13,17.13,0,0,0,10.73-2.78,12.74,12.74,0,0,0,4.12-4.61.12.12,0,0,0-.07-.19L59,206.17c-1.25-.42-2.51-.79-3.78-1.16a64.83,64.83,0,0,1-24.07-12.94c-1-.85-2-1.7-3.06-2.5Z"/><path class="cls-2" d="M87.16,203.18c-.56,3-2.19,4.73-3.8,7.19-2.38,3.65-4.48,7.31-9.07,8.38-7.35,1.7-15.87-2.05-22.2-5.43-7.28-3.89-14.49-8-21.7-12-7.43-4.14-15.83-8.23-22-14.13-3-2.84-2.66-6.83-2-10.72,1.11-6.13,5.23-9.63,11.42-10.49,3.81-.53,2.18-6.31-1.6-5.78C5.2,161.72,0,170.48,0,180.93c0,8.11,5.06,11.78,11.34,16,7.86,5.26,16.25,9.74,24.56,14.24,8.82,4.77,17.42,10.67,27.31,12.91,6.74,1.53,14.3,1.66,19.72-3.26,2.54-2.31,4.15-5.28,6-8.09s3.36-4.7,4-7.94c.72-3.78-5.07-5.39-5.79-1.6Z"/><path class="cls-1" d="M246.67,95.26c-1.8,3.39-3.17,6.53-6,9.06-3.19,2.81-6,5.14-8.5,7.48-13,11.91-42.23,2.31-51.3-.2-7.77-2.14-11.24-8.23-9.94-13.77,1.39-5.89,15.32-4.35,21.65-1.89,5.93,2.3,12.33,4.2,18.57,3a24.9,24.9,0,0,0,12.77-7.34,54.93,54.93,0,0,0,8.55-12.23c8-14.64,15.24-29.22,17.52-45.75l1.58-5.74c-3.52-3.86-7.45-8-9.93-12.65-.52-1,0-4.28.5-4.81,2.37-2.71,7.18-4.69,14.89-4.24a27,27,0,0,0,9.16-1l6.89-2a5,5,0,0,1,6.21,3.25,123,123,0,0,1,4.14,15.54c.86,5.38.5,11.08-2.05,15.93a5.57,5.57,0,0,1-.85,1.24c-2.84,3.12-6.66,1-9.52-1C271,38.07,256.31,77.12,246.67,95.26Z"/><path class="cls-2" d="M244.08,93.74c-4.62,8.84-13.55,18.36-23.8,20.31-8.7,1.65-18,0-26.48-2-6.23-1.47-18.61-3-20.06-10.5-1.83-9.57,18.1-2.48,22.1-1.2,10.57,3.39,20.78,2.14,29.08-5.56s13.46-19.49,18.18-29.63c4.85-10.4,7.36-20.76,10-31.82.66-2.75,2.05-5,.5-7.55-1.72-2.84-11.48-9.89-8.84-13.83,3.06-4.56,13.32-2.41,17.72-3,3.35-.43,7.4-2.73,10.71-2.75,4.62,0,6.25,11.14,6.94,14.83a27.18,27.18,0,0,1,.17,10.67c-.3,1.41-.71,3.53-1.6,4.64-2,2.52-4.27.51-6.26-.83-1.74-1.17-3.78.1-4.41,1.79-7.16,19.07-14.49,38.43-24,56.47-1.8,3.42,3.38,6.45,5.18,3,9.74-18.5,17.25-38.35,24.59-57.91l-4.4,1.8c4,2.69,9.31,4.62,13.15.52,4.09-4.35,4.57-12.08,4-17.67a70.05,70.05,0,0,0-4.47-18A8.33,8.33,0,0,0,272.08.25c-4.55,1-8.46,2.86-13.24,3-5.62.11-11.26-.31-16.23,2.86C232.06,12.8,244.16,24.24,249.4,30l-.77-2.92c-1.86,6.73-2.81,13.63-4.91,20.3-3.19,10.11-8,19.61-13,28.9C226.2,84.52,220.4,94.2,210.3,96c-8.89,1.61-17-3.93-25.69-5-5-.6-12.47-.91-15.68,3.88s-.44,12,3.45,15.49c4.28,3.89,10.67,5,16.12,6.43a110.88,110.88,0,0,0,20.3,3.61c7.14.51,14.89,0,21.27-3.54,3.76-2.08,6.83-5.39,10-8.19a37.8,37.8,0,0,0,9.15-12C251.05,93.36,245.87,90.32,244.08,93.74Z"/></g></g></svg>