<svg id="图层_1" data-name="图层 1" xmlns="http://www.w3.org/2000/svg" viewBox="0 0 47.65 47.65"><defs><style>.cls-1{fill:#49a9ea;}.cls-2{fill:#fff;}</style></defs><title>对比（蓝色背景）</title><path class="cls-1" d="M480.94,571.62a23.83,23.83,0,1,1,23.82-23.82,23.92,23.92,0,0,1-23.82,23.82Zm0-45.41" transform="translate(-457.11 -523.97)"/><path class="cls-2" d="M475.05,551.72a9.38,9.38,0,0,0-.38,2h0a11,11,0,0,0-.33-1.92l-3.7-13.68h-4l5.88,19.32h4.12l5.92-19.32h-3.82Zm19.21-2.92a8.62,8.62,0,0,0-3.49-2.6,9.53,9.53,0,0,1-2.73-1.72,2,2,0,0,1-.55-1.36,1.66,1.66,0,0,1,.8-1.49,3.84,3.84,0,0,1,2.14-.56,6.35,6.35,0,0,1,4,1.33v-3.88a10.6,10.6,0,0,0-4.21-.72,7.35,7.35,0,0,0-4.83,1.48,5.11,5.11,0,0,0-1.8,4.2c0,2.44,1.34,4.32,4,5.6a12.5,12.5,0,0,1,3.15,1.88,2.08,2.08,0,0,1,.59,1.48,1.77,1.77,0,0,1-.76,1.48,3.55,3.55,0,0,1-2.23.6,6.71,6.71,0,0,1-4.7-1.92v4.12a9.6,9.6,0,0,0,4.83,1.08,7.42,7.42,0,0,0,5-1.49,5.15,5.15,0,0,0,1.76-4.24,5.54,5.54,0,0,0-1-3.27Zm0,0" transform="translate(-457.11 -523.97)"/></svg>